<svg xmlns="http://www.w3.org/2000/svg" width="15.9" height="15.9" viewBox="0 0 15.9 15.9">
  <path id="Контур_505" data-name="Контур 505" d="M141.7,0a7.95,7.95,0,1,0,7.94,8,7.95,7.95,0,0,0-7.94-8Zm-3.94,13v-.14a3.46,3.46,0,0,0,.67-.18,1.38,1.38,0,0,0,.51-.36.54.54,0,0,0,.12-.24c0-.11.05-.23.07-.38a3,3,0,0,0,.05-.44V6.48c.13.45.25.89.38,1.33A36.677,36.677,0,0,0,141,13Zm7.72-1.86a2.81,2.81,0,0,1-.41.72,3.1,3.1,0,0,1-.56.53,3.41,3.41,0,0,1-.62.33l-.25.08-.3-.79a2.08,2.08,0,0,0,.32-.4,2.22,2.22,0,0,0,.33-1.23,2.189,2.189,0,0,0-.14-.77,2.64,2.64,0,0,0-.36-.66,2.71,2.71,0,0,0-.55-.52,2.84,2.84,0,0,0-.7-.34,3.589,3.589,0,0,0-.41-.11l-.16-.41a2.3,2.3,0,0,0,1.11-.6,2.14,2.14,0,0,0,.66-1.6,2.21,2.21,0,0,0-.36-1.25,2.06,2.06,0,0,0-.9-.79,3.94,3.94,0,0,0-1.61-.28,4.39,4.39,0,0,0-.54,0H140a1.8,1.8,0,0,0-.08-.21h1.57a8.23,8.23,0,0,1,1,.06,4.17,4.17,0,0,1,.94.23,2.77,2.77,0,0,1,1.18.82,2.07,2.07,0,0,1,.47,1.39,2,2,0,0,1-.6,1.5,3.11,3.11,0,0,1-1.56.77h0a4,4,0,0,1,1,.25,3.32,3.32,0,0,1,.88.51,2.42,2.42,0,0,1,.62.77,2.09,2.09,0,0,1,.23,1,2.63,2.63,0,0,1-.17,1.01Z" transform="translate(-133.74 0)" fill="#707070"/>
</svg>
