<svg id="_ÎÓÈ_1" data-name="—ÎÓÈ_1" xmlns="http://www.w3.org/2000/svg" width="16.957" height="16.957" viewBox="0 0 16.957 16.957">
  <rect id="Прямоугольник_131" data-name="Прямоугольник 131" width="7.741" transform="translate(8.987 6.514)" fill="#fff"/>
  <path id="Контур_647" data-name="Контур 647" d="M519.9,475.67h7.945q.026-.324.026-.655t-.026-.655H519.9Z" transform="translate(-510.913 -466.536)" fill="#bf0a30"/>
  <path id="Контур_648" data-name="Контур 648" d="M519.9,424.39h7.945a8.432,8.432,0,0,0-.2-1.31H519.9Z" transform="translate(-510.913 -416.566)" fill="#fff"/>
  <path id="Контур_649" data-name="Контур 649" d="M519.9,371.8v1.31h7.74a8.427,8.427,0,0,0-.427-1.31Z" transform="translate(-510.913 -366.595)" fill="#bf0a30"/>
  <path id="Контур_650" data-name="Контур 650" d="M519.9,321.83h7.315a8.439,8.439,0,0,0-.69-1.31H519.9Z" transform="translate(-510.913 -316.625)" fill="#fff"/>
  <path id="Контур_651" data-name="Контур 651" d="M519.9,270.54h6.626a8.527,8.527,0,0,0-1.039-1.31H519.9Z" transform="translate(-510.913 -266.645)" fill="#bf0a30"/>
  <path id="Контур_652" data-name="Контур 652" d="M519.9,219.308h5.587A8.529,8.529,0,0,0,523.866,218H519.9Z" transform="translate(-510.913 -216.723)" fill="#fff"/>
  <path id="Контур_653" data-name="Контур 653" d="M523.866,169.852a8.43,8.43,0,0,0-3.966-1.262v1.262Z" transform="translate(-510.913 -168.575)" fill="#bf0a30"/>
  <path id="Контур_654" data-name="Контур 654" d="M329.255,783.277A8.439,8.439,0,0,0,333.729,782H324.78A8.439,8.439,0,0,0,329.255,783.277Z" transform="translate(-320.776 -766.32)" fill="#bf0a30"/>
  <path id="Контур_655" data-name="Контур 655" d="M262.941,732.08h8.949a8.526,8.526,0,0,0,1.621-1.31H261.32A8.525,8.525,0,0,0,262.941,732.08Z" transform="translate(-258.937 -716.398)" fill="#fff"/>
  <path id="Контур_656" data-name="Контур 656" d="M221.689,680.79h12.191a8.532,8.532,0,0,0,1.039-1.31H220.65A8.528,8.528,0,0,0,221.689,680.79Z" transform="translate(-219.305 -666.418)" fill="#bf0a30"/>
  <path id="Контур_657" data-name="Контур 657" d="M194.349,629.51h14.268a8.45,8.45,0,0,0,.689-1.31H193.66A8.45,8.45,0,0,0,194.349,629.51Z" transform="translate(-193.005 -616.448)" fill="#fff"/>
  <path id="Контур_658" data-name="Контур 658" d="M177.425,578.229h15.646a8.437,8.437,0,0,0,.425-1.31H177A8.435,8.435,0,0,0,177.425,578.229Z" transform="translate(-176.77 -566.477)" fill="#bf0a30"/>
  <path id="Контур_659" data-name="Контур 659" d="M177.961,525.64H169a8.437,8.437,0,0,0,.2,1.31h16.5a8.437,8.437,0,0,0,.2-1.31Z" transform="translate(-168.974 -516.507)" fill="#fff"/>
  <path id="Контур_660" data-name="Контур 660" d="M173.775,168.44l.092.268h.366l-.293.23.11.356-.306-.213-.314.213.122-.356-.312-.23h.387l.08-.245a8.472,8.472,0,0,0-2.89,1.7l.014.044-.035-.026a8.512,8.512,0,0,0-1.745,2.2h.287l.117-.358.122.358h.366l-.293.23.11.356-.306-.213-.314.213.122-.356-.241-.179a8.482,8.482,0,0,0-.409.864h.256l-.293.23.109.356-.23-.16a8.434,8.434,0,0,0-.351,1.412h.158l.117-.358.122.358h.367l-.293.23.109.356-.306-.213-.314.213.122-.356-.106-.078a8.561,8.561,0,0,0-.081,1.188q0,.322.024.638h8.964v-2.6h0v-6.5q-.254-.015-.509-.015A8.473,8.473,0,0,0,173.775,168.44Zm-4.015,8.208-.306-.213-.314.213.122-.356-.312-.23h.387l.117-.358.122.358h.366l-.293.23Zm-.11-2.192.11.356-.306-.213-.314.213.122-.356-.312-.23h.387l.117-.358.122.358h.366Zm1.181,1.271-.306-.213-.314.213.122-.356-.312-.23h.387l.117-.358.122.358h.367l-.293.23Zm-.11-2.194.11.356-.306-.213-.314.213.122-.356-.312-.23h.387l.117-.358.122.358h.367Zm0-1.832.11.356-.306-.213-.314.213.123-.355-.312-.23h.387l.117-.358.122.358h.367Zm1.182,4.947-.306-.213-.314.213.122-.356-.312-.23h.387l.117-.358.122.358h.366l-.293.23Zm-.11-2.192.11.356-.306-.213-.314.213.122-.356-.312-.23h.387l.117-.358.122.358h.366Zm0-1.839.11.356-.306-.213-.314.213.122-.356-.312-.23h.387l.117-.358.122.358h.366Zm0-1.837.11.356-.306-.213-.314.213.122-.356-.312-.23h.387l.117-.358.122.358h.366Zm1.182,4.948-.306-.213-.314.213.122-.356-.312-.23h.386l.117-.358.122.358h.367l-.293.23Zm-.11-2.194.11.356-.306-.213-.314.213.122-.356-.312-.23h.386l.117-.358.122.358h.367Zm0-1.832.11.356-.306-.213-.314.213.123-.355-.312-.23h.386l.117-.358.122.358h.367Zm0-1.847.11.356L172.67,170l-.314.213.122-.356-.312-.23h.386l.117-.358.122.358h.367Zm1.183,6.793-.306-.213-.314.213.122-.356-.312-.23h.387l.117-.358.122.358h.366l-.293.23Zm-.11-2.192.11.356-.306-.213-.314.213.122-.356-.312-.23h.387l.117-.358.122.358h.366Zm0-1.839.11.356-.306-.213-.314.213.122-.356-.312-.23h.387l.117-.358.122.358h.366Zm0-1.837.11.356-.306-.213-.314.213.122-.356-.312-.23h.387l.117-.358.122.358h.366Zm1.182,4.948-.306-.213-.314.213.122-.356-.312-.23h.387l.117-.358.122.358h.366l-.293.23Zm-.11-2.194.11.356-.306-.213-.314.213.122-.356-.312-.23h.387l.117-.358.122.358h.366Zm0-1.832.11.356-.306-.213-.314.213.123-.355-.312-.23h.387l.117-.358.122.358h.366Zm0-1.847.11.356-.306-.213-.314.213.122-.356-.312-.23h.387l.117-.358.122.358h.366Zm1.182,6.793-.306-.213-.314.213.122-.356-.312-.23h.387l.117-.358.122.358h.367l-.293.23Zm-.11-2.192.11.356-.306-.213-.314.213.122-.356-.312-.23h.387l.117-.358.122.358h.367Zm0-1.839.11.356-.306-.213-.314.213.122-.356-.312-.23h.387l.117-.358.122.358h.367Zm0-1.837.11.356-.306-.213-.314.213.122-.356-.312-.23h.386l.117-.358.122.358h.367Zm0-1.84.11.356-.306-.213-.314.213.122-.356-.312-.23h.386l.117-.358.122.358h.367Z" transform="translate(-168 -168)" fill="#002868"/>
  <path id="Контур_661" data-name="Контур 661" d="M177.864,525H168.9v.017h8.964Z" transform="translate(-168.877 -515.883)" fill="#002868"/>
  <rect id="Прямоугольник_132" data-name="Прямоугольник 132" width="8.962" transform="translate(0.025 9.133)" fill="#002868"/>
  <path id="Контур_662" data-name="Контур 662" d="M391.6,181.74l-.037.112.067-.023Z" transform="translate(-385.851 -181.389)" fill="#fff"/>
  <path id="Контур_663" data-name="Контур 663" d="M373.24,185.518l.312.23-.122.356.315-.212.306.213-.11-.356.293-.23h-.368l-.092-.268-.067.023-.08.245Z" transform="translate(-367.999 -184.809)" fill="#fff"/>
  <path id="Контур_664" data-name="Контур 664" d="M457.753,181.74l-.117.358h-.386l.312.23-.122.356.314-.213.305.213-.11-.356.293-.23h-.366Z" transform="translate(-449.863 -181.389)" fill="#fff"/>
  <path id="Контур_665" data-name="Контур 665" d="M415.743,217.59l-.117.358h-.387l.312.23-.122.356.314-.213.305.213-.11-.356.293-.23h-.366Z" transform="translate(-408.926 -216.324)" fill="#fff"/>
  <path id="Контур_666" data-name="Контур 666" d="M331.723,217.59l-.117.358h-.386l.312.23-.122.356.314-.213.305.213-.11-.356.293-.23h-.367Z" transform="translate(-327.052 -216.324)" fill="#fff"/>
  <path id="Контур_667" data-name="Контур 667" d="M277.532,252.82l-.022.019.035.026Z" transform="translate(-274.713 -250.654)" fill="#fff"/>
  <path id="Контур_668" data-name="Контур 668" d="M289.724,253.81l-.117.358h-.387l.312.23-.122.356.314-.213.305.213-.11-.356.293-.23h-.366Z" transform="translate(-286.124 -251.619)" fill="#fff"/>
  <path id="Контур_669" data-name="Контур 669" d="M373.744,253.81l-.117.358h-.387l.312.23-.122.356.314-.213.305.213-.11-.356.293-.23h-.366Z" transform="translate(-367.999 -251.619)" fill="#fff"/>
  <path id="Контур_670" data-name="Контур 670" d="M457.753,253.81l-.117.358h-.386l.312.23-.122.356.314-.213.305.213-.11-.356.293-.23h-.366Z" transform="translate(-449.863 -251.619)" fill="#fff"/>
  <path id="Контур_671" data-name="Контур 671" d="M415.743,289.93l-.117.358h-.387l.312.23-.122.356.314-.213.305.213-.11-.356.293-.23h-.366Z" transform="translate(-408.926 -286.816)" fill="#fff"/>
  <path id="Контур_672" data-name="Контур 672" d="M331.723,289.93l-.117.358h-.386l.312.23-.122.356.314-.213.305.213-.11-.356.293-.23h-.367Z" transform="translate(-327.052 -286.816)" fill="#fff"/>
  <path id="Контур_673" data-name="Контур 673" d="M247.724,289.93l-.117.358h-.387l.312.23-.122.356.314-.213.305.213-.11-.356.293-.23h-.366Z" transform="translate(-245.197 -286.816)" fill="#fff"/>
  <path id="Контур_674" data-name="Контур 674" d="M208.159,326.713l.314-.213.306.213-.11-.356.293-.23h-.368l-.122-.358-.117.358h-.287l-.029.051.241.179Z" transform="translate(-207.017 -321.741)" fill="#fff"/>
  <path id="Контур_675" data-name="Контур 675" d="M289.724,325.75l-.117.358h-.387l.312.23-.122.356.314-.213.305.213-.11-.356.293-.23h-.366Z" transform="translate(-286.124 -321.721)" fill="#fff"/>
  <path id="Контур_676" data-name="Контур 676" d="M373.744,325.75l-.117.358h-.387l.312.23-.122.356.314-.213.305.213-.11-.356.293-.23h-.366Z" transform="translate(-367.999 -321.721)" fill="#fff"/>
  <path id="Контур_677" data-name="Контур 677" d="M457.753,325.75l-.117.358h-.386l.312.23-.122.356.314-.213.305.213-.11-.356.293-.23h-.366Z" transform="translate(-449.863 -321.721)" fill="#fff"/>
  <path id="Контур_678" data-name="Контур 678" d="M415.743,361.65l-.117.358h-.387l.312.23-.122.356.314-.213.305.213-.11-.356.293-.23h-.366Z" transform="translate(-408.926 -356.705)" fill="#fff"/>
  <path id="Контур_679" data-name="Контур 679" d="M331.723,361.65l-.117.358h-.386l.312.23-.122.356.314-.213.305.213-.11-.356.293-.23h-.367Z" transform="translate(-327.052 -356.705)" fill="#fff"/>
  <path id="Контур_680" data-name="Контур 680" d="M247.724,361.65l-.117.358h-.387l.312.23-.122.356.314-.213.305.213-.11-.356.293-.23h-.366Z" transform="translate(-245.197 -356.705)" fill="#fff"/>
  <path id="Контур_681" data-name="Контур 681" d="M185.97,375.9l.293-.23h-.254q-.085.21-.159.426l.23.16Z" transform="translate(-185.394 -370.367)" fill="#fff"/>
  <path id="Контур_682" data-name="Контур 682" d="M205.773,397.78l-.117.358h-.387l.312.23-.122.356.314-.213.305.213-.11-.356.293-.23H205.9Z" transform="translate(-204.318 -391.912)" fill="#fff"/>
  <path id="Контур_683" data-name="Контур 683" d="M289.724,397.78l-.117.358h-.387l.312.23-.122.356.314-.213.305.213-.11-.356.293-.23h-.366Z" transform="translate(-286.124 -391.912)" fill="#fff"/>
  <path id="Контур_684" data-name="Контур 684" d="M373.744,397.78l-.117.358h-.387l.312.23-.122.356.314-.213.305.213-.11-.356.293-.23h-.366Z" transform="translate(-367.999 -391.912)" fill="#fff"/>
  <path id="Контур_685" data-name="Контур 685" d="M457.753,397.78l-.117.358h-.386l.312.23-.122.356.314-.213.305.213-.11-.356.293-.23h-.366Z" transform="translate(-449.863 -391.912)" fill="#fff"/>
  <path id="Контур_686" data-name="Контур 686" d="M415.866,433.988l-.122-.358-.117.358h-.387l.312.23-.122.356.314-.213.305.213-.11-.356.293-.23Z" transform="translate(-408.926 -426.847)" fill="#fff"/>
  <path id="Контур_687" data-name="Контур 687" d="M331.845,433.988l-.122-.358-.117.358h-.386l.312.23-.122.356.314-.213.305.213-.11-.356.293-.23Z" transform="translate(-327.052 -426.847)" fill="#fff"/>
  <path id="Контур_688" data-name="Контур 688" d="M247.846,433.988l-.122-.358-.117.358h-.387l.312.23-.122.356.314-.213.305.213-.11-.356.293-.23Z" transform="translate(-245.197 -426.847)" fill="#fff"/>
  <path id="Контур_689" data-name="Контур 689" d="M170.59,434.593l.314-.213.306.213-.109-.356.293-.23h-.367l-.122-.358-.117.358h-.158q-.012.077-.023.152l.106.078Z" transform="translate(-170.524 -426.866)" fill="#fff"/>
  <path id="Контур_690" data-name="Контур 690" d="M205.9,470.048l-.122-.358-.117.358h-.387l.312.23-.122.356.314-.213.305.213-.11-.356.293-.23Z" transform="translate(-204.318 -461.986)" fill="#fff"/>
  <path id="Контур_691" data-name="Контур 691" d="M289.846,470.048l-.122-.358-.117.358h-.387l.312.23-.122.356.314-.213.305.213-.11-.356.293-.23Z" transform="translate(-286.124 -461.986)" fill="#fff"/>
  <path id="Контур_692" data-name="Контур 692" d="M373.866,470.048l-.122-.358-.117.358h-.387l.312.23-.122.356.314-.213.305.213-.11-.356.293-.23Z" transform="translate(-367.999 -461.986)" fill="#fff"/>
  <path id="Контур_693" data-name="Контур 693" d="M457.876,470.048l-.122-.358-.117.358h-.386l.312.23-.122.356.314-.213.305.213-.11-.356.293-.23Z" transform="translate(-449.863 -461.986)" fill="#fff"/>
</svg>
