<svg id="Logo" xmlns="http://www.w3.org/2000/svg" xmlns:xlink="http://www.w3.org/1999/xlink" width="140.701" height="27.873" viewBox="0 0 140.701 27.873">
  <defs>
    <linearGradient id="linear-gradient" y1="0.5" x2="1" y2="0.5" gradientUnits="objectBoundingBox">
      <stop offset="0" stop-color="#0673fa"/>
      <stop offset="1" stop-color="#03bbdb"/>
    </linearGradient>
  </defs>
  <g id="Layer_1" data-name="Layer 1">
    <path id="Контур_405" data-name="Контур 405" d="M34.553,9.045l-6.466,9.142L12.507,0H0L22.517,24.785a8.476,8.476,0,0,0,2.176,2.205,5.57,5.57,0,0,0,3.216.879,5.473,5.473,0,0,0,3.273-.942A10.182,10.182,0,0,0,33.4,24.8L44.545,9.045Z" transform="translate(0 0)" fill="url(#linear-gradient)"/>
    <path id="Контур_406" data-name="Контур 406" d="M99.208,22.08q-1.436-1.43-2.3-2.251a18.833,18.833,0,0,0-1.556-1.355,9.24,9.24,0,0,0,3.015-1.149,8.338,8.338,0,0,0,3.664-4.525,9.326,9.326,0,0,0,.494-3.032,8.223,8.223,0,0,0-1.332-4.835A9.8,9.8,0,0,0,97.83,1.964,14.775,14.775,0,0,0,93.27.431,28.518,28.518,0,0,0,88.435,0H67.572L62.53,7.127h26.6a6.317,6.317,0,0,1,3.446.8,2.67,2.67,0,0,1,1.235,2.412,2.521,2.521,0,0,1-1.35,2.251,6.317,6.317,0,0,1-3.319.821H70.386l-4.835,6.748H86.8L92.9,27.4H104.25Z" transform="translate(-26.622 0)"/>
    <path id="Контур_407" data-name="Контур 407" d="M142.6,26.069a9.292,9.292,0,0,1,2.469.287,4.784,4.784,0,0,1,1.8.89,4.508,4.508,0,0,1,1.2,1.533,7.85,7.85,0,0,1,.672,2.205l.385,2.366a6.891,6.891,0,0,1,.057,2.205,2.917,2.917,0,0,1-.7,1.539,3.187,3.187,0,0,1-1.51.884,8.247,8.247,0,0,1-2.372.293h-8.177a.574.574,0,0,1-.609-.528L133.991,26.6c-.057-.35.086-.523.436-.523Zm-4.462,9.55a.241.241,0,0,0,.264.23h5.714a4.623,4.623,0,0,0,1.269-.144,1.487,1.487,0,0,0,.77-.454,1.441,1.441,0,0,0,.327-.833,5,5,0,0,0-.075-1.292l-.31-1.93a5.622,5.622,0,0,0-.356-1.286,2.136,2.136,0,0,0-.574-.838,2.228,2.228,0,0,0-.919-.454,5.438,5.438,0,0,0-1.315-.138h-5.714c-.155,0-.212.08-.19.241Z" transform="translate(-57.04 -11.098)"/>
    <path id="Контур_408" data-name="Контур 408" d="M170.168,26.061a4.4,4.4,0,0,1,3.026.907,4.393,4.393,0,0,1,1.315,2.682l.161.993a3.727,3.727,0,0,1-.224,2.372,2.372,2.372,0,0,1-1.8,1.114l3.589,3.7a.31.31,0,0,1,.092.258c0,.115-.086.178-.247.178h-2.251a.712.712,0,0,1-.322-.057.746.746,0,0,1-.2-.172l-3.348-3.624h-5.633l.574,3.446c.046.253-.063.385-.322.385h-1.884a.419.419,0,0,1-.459-.385l-1.861-11.261c-.057-.35.092-.523.436-.523Zm-6.191,6.219h6.673a1.493,1.493,0,0,0,1.194-.379,1.482,1.482,0,0,0,.172-1.149l-.121-.729a1.625,1.625,0,0,0-1.872-1.55H163.6q-.224,0-.19.207Z" transform="translate(-68.271 -11.09)"/>
    <path id="Контур_409" data-name="Контур 409" d="M188.211,26.069a.413.413,0,0,1,.448.385l1.872,11.433c.04.253-.063.385-.322.385h-1.884a.419.419,0,0,1-.459-.385l-1.872-11.434c-.04-.258.069-.385.339-.385Z" transform="translate(-79.182 -11.098)"/>
    <path id="Контур_410" data-name="Контур 410" d="M193.686,26.069a.523.523,0,0,1,.264.052.7.7,0,0,1,.178.172l6.644,9.378a.235.235,0,0,0,.23.121h.086a.172.172,0,0,0,.172-.121l3.5-9.378c.046-.149.167-.224.368-.224h2.3c.144,0,.23.034.276.109a.368.368,0,0,1,0,.293l-4.02,10.474a2.251,2.251,0,0,1-.683,1.062,1.6,1.6,0,0,1-.93.264h-1.011a2.487,2.487,0,0,1-1.149-.264,3.445,3.445,0,0,1-1.068-1.068l-7.506-10.469a.419.419,0,0,1-.092-.293c0-.075.1-.109.253-.109Z" transform="translate(-81.418 -11.098)"/>
    <path id="Контур_411" data-name="Контур 411" d="M232.074,26.06a.413.413,0,0,1,.465.385l.27,1.654c.046.253-.069.385-.333.385h-7.62a4.445,4.445,0,0,0-1.1.109,1.269,1.269,0,0,0-.655.385,1.24,1.24,0,0,0-.253.735,5,5,0,0,0,.08,1.149l.029.172H232.8a.413.413,0,0,1,.448.385l.224,1.372c.04.258-.063.385-.322.385h-9.849l.052.3a6.231,6.231,0,0,0,.287,1.149,1.792,1.792,0,0,0,.5.729,1.826,1.826,0,0,0,.775.385,4.939,4.939,0,0,0,1.149.115h7.62a.413.413,0,0,1,.459.379l.276,1.66c.04.253-.075.385-.339.385h-7.7a9.435,9.435,0,0,1-2.3-.247,4.175,4.175,0,0,1-1.642-.792,4.02,4.02,0,0,1-1.051-1.453,8.131,8.131,0,0,1-.62-2.136l-.494-3a6.994,6.994,0,0,1-.075-2.125,2.6,2.6,0,0,1,.62-1.424,2.871,2.871,0,0,1,1.378-.8,7.976,7.976,0,0,1,2.205-.253Z" transform="translate(-93.729 -11.089)"/>
    <path id="Контур_412" data-name="Контур 412" d="M137.01,21.549h-.436V18.677h-1.9v-.431h1.872a.431.431,0,0,1,.488.488Zm-1.912,0h-.448V19.975c0-.281.132-.419.4-.419h.052Z" transform="translate(-57.326 -7.766)"/>
    <path id="Контур_413" data-name="Контур 413" d="M142.613,21.022a.643.643,0,0,1-.086.385.362.362,0,0,1-.316.115h-1v-.436h.982V18.679h-.867a.672.672,0,0,0-.54.235.867.867,0,0,0-.2.574V21.55h-.436V19.517a1.321,1.321,0,0,1,.3-.873,1.068,1.068,0,0,1,.873-.4h.913a.362.362,0,0,1,.31.115.689.689,0,0,1,.08.379Z" transform="translate(-59.667 -7.768)"/>
    <path id="Контур_414" data-name="Контур 414" d="M146.288,21.573h-.448V18.3h.448Z" transform="translate(-62.09 -7.791)"/>
    <path id="Контур_415" data-name="Контур 415" d="M149.9,18.706h-.454v2.871H149v-2.3a.723.723,0,0,1,.1-.373.281.281,0,0,1,.235-.167H147.56V18.31H149.9Z" transform="translate(-62.822 -7.795)"/>
    <path id="Контур_416" data-name="Контур 416" d="M155.165,21.022a.643.643,0,0,1-.086.385.35.35,0,0,1-.316.115h-1.011v-.436h.982V18.679h-.867a.672.672,0,0,0-.54.235.867.867,0,0,0-.2.574V21.55h-.436V19.517a1.321,1.321,0,0,1,.3-.873,1.068,1.068,0,0,1,.873-.4h.913a.362.362,0,0,1,.31.115.689.689,0,0,1,.08.379Z" transform="translate(-65.006 -7.768)"/>
    <path id="Контур_417" data-name="Контур 417" d="M162.965,21.552h-.454V18.681H161.1v2.337a.637.637,0,0,1-.1.39.4.4,0,0,1-.327.115h-.454v-.442h.448V18.727c0-.316.178-.477.528-.477h1.286c.333,0,.505.161.505.482Z" transform="translate(-68.212 -7.77)"/>
    <path id="Контур_418" data-name="Контур 418" d="M166.832,21.573h-.442V18.3h.442Z" transform="translate(-70.839 -7.791)"/>
    <path id="Контур_419" data-name="Контур 419" d="M170.883,21.552h-.523l-1.321-2.136a.649.649,0,0,0-.161.523v1.614h-.448V19.864a.54.54,0,0,1,.167-.408.574.574,0,0,1,.4-.155h0l-.683-1.051h.517l1.246,1.993a.528.528,0,0,0,.212-.482V18.25h.442v1.47a.637.637,0,0,1-.161.431.494.494,0,0,1-.408.2h-.034Z" transform="translate(-71.656 -7.77)"/>
    <path id="Контур_420" data-name="Контур 420" d="M174.262,20.03h-.442V18.25h.442Z" transform="translate(-74.002 -7.77)"/>
    <path id="Контур_421" data-name="Контур 421" d="M177.906,19.548c0,.574-.224.867-.66.867l.626,1.045v.063H175.54v-.436h1.642L175.46,18.25h.482l1.252,2.079a.413.413,0,0,0,.23-.327,2.36,2.36,0,0,0,0-.419V18.25h.454Z" transform="translate(-74.701 -7.77)"/>
    <path id="Контур_422" data-name="Контур 422" d="M183.475,21.022a.643.643,0,0,1-.086.385.35.35,0,0,1-.316.115h-1.011v-.436h.982V18.679h-.867a.672.672,0,0,0-.54.235.867.867,0,0,0-.2.574V21.55H181V19.517a1.321,1.321,0,0,1,.3-.873,1.08,1.08,0,0,1,.873-.4h.913a.362.362,0,0,1,.31.115.689.689,0,0,1,.08.379Z" transform="translate(-77.059 -7.768)"/>
    <path id="Контур_423" data-name="Контур 423" d="M188.8,21.552H186.39V21.11h1.573V18.681h-1.476V18.25h1.367a.574.574,0,0,1,.4.149.54.54,0,0,1,.155.4v2.3h.385Z" transform="translate(-79.354 -7.77)"/>
    <path id="Контур_424" data-name="Контур 424" d="M196.13,21.549h-.459V18.678h-1.9v-.431h1.855a.436.436,0,0,1,.494.488Zm-1.918,0h-.442V19.975c0-.281.132-.419.4-.419h.046Z" transform="translate(-82.496 -7.767)"/>
    <path id="Контур_425" data-name="Контур 425" d="M199.672,20.03h-.442V18.25h.442Z" transform="translate(-84.82 -7.77)"/>
    <path id="Контур_426" data-name="Контур 426" d="M203.13,21.552h-.448V18.681H201V18.25h1.562a.574.574,0,0,1,.4.144.494.494,0,0,1,.167.4Z" transform="translate(-85.574 -7.77)"/>
    <path id="Контур_427" data-name="Контур 427" d="M206.558,21.573h-.448V18.3h.448Z" transform="translate(-87.749 -7.791)"/>
    <path id="Контур_428" data-name="Контур 428" d="M210.59,21.552h-.523l-1.321-2.136a.649.649,0,0,0-.155.523v1.614h-.454V19.864a.54.54,0,0,1,.167-.408.574.574,0,0,1,.4-.155h0L208,18.25h.517l1.252,1.993a.534.534,0,0,0,.207-.482V18.25h.448v1.47a.643.643,0,0,1-.167.431.494.494,0,0,1-.408.2h-.034Z" transform="translate(-88.554 -7.77)"/>
    <path id="Контур_429" data-name="Контур 429" d="M215.9,21.552h-.454V18.681h-1.413v2.337a.643.643,0,0,1-.092.39.413.413,0,0,1-.333.115h-.454v-.442h.431V18.727c0-.316.172-.477.523-.477H215.4c.339,0,.505.161.505.482Z" transform="translate(-90.751 -7.77)"/>
    <path id="Контур_430" data-name="Контур 430" d="M221.952,20.03h-.442V18.25h.442Z" transform="translate(-94.306 -7.77)"/>
    <path id="Контур_431" data-name="Контур 431" d="M225.491,18.706h-.454v2.871H224.6v-2.3a.724.724,0,0,1,.1-.373.276.276,0,0,1,.235-.167H223.16V18.31h2.331Z" transform="translate(-95.008 -7.795)"/>
    <path id="Контур_432" data-name="Контур 432" d="M228.772,21.573h-.442V18.3h.442Z" transform="translate(-97.209 -7.791)"/>
    <path id="Контур_433" data-name="Контур 433" d="M232.965,21.022a.643.643,0,0,1-.086.385.35.35,0,0,1-.316.115h-1.011v-.436h.982V18.679h-.867a.672.672,0,0,0-.54.235.867.867,0,0,0-.2.574V21.55h-.436V19.517a1.321,1.321,0,0,1,.3-.873,1.068,1.068,0,0,1,.873-.4h.913a.362.362,0,0,1,.31.115.689.689,0,0,1,.08.379Z" transform="translate(-98.129 -7.768)"/>
    <path id="Контур_434" data-name="Контур 434" d="M236.592,20.03h-.442V18.25h.442Z" transform="translate(-100.539 -7.77)"/>
    <path id="Контур_435" data-name="Контур 435" d="M240.236,18.059l-1.016,2.871h-.436l1.011-2.871H238.26a.436.436,0,0,1-.31-.086.425.425,0,0,1-.092-.31V16.79h.436v.838h1.55a.419.419,0,0,1,.322.092.413.413,0,0,1,.069.339Z" transform="translate(-101.265 -7.148)"/>
  </g>
</svg>
