<svg id="Сгруппировать_65" data-name="Сгруппировать 65" xmlns="http://www.w3.org/2000/svg" xmlns:xlink="http://www.w3.org/1999/xlink" width="25.802" height="36.5" viewBox="0 0 25.802 36.5">
  <defs>
    <clipPath id="clip-path">
      <rect id="Прямоугольник_115" data-name="Прямоугольник 115" width="25.803" height="36.5" fill="#c61781"/>
    </clipPath>
  </defs>
  <g id="Сгруппировать_64" data-name="Сгруппировать 64" clip-path="url(#clip-path)">
    <path id="Контур_582" data-name="Контур 582" d="M24.471,76.363H1.331a1.331,1.331,0,0,1,0-2.663h23.14a1.331,1.331,0,0,1,0,2.663" transform="translate(0 -39.863)" fill="#c61781"/>
    <path id="Контур_583" data-name="Контур 583" d="M13.767,30.945a1.25,1.25,0,0,1-.964-.413C11.655,29.338,1.6,18.5,1.6,12.167a12.167,12.167,0,1,1,24.333,0c0,6.336-10.055,17.125-11.2,18.365a1.25,1.25,0,0,1-.964.413m0-28.236a9.474,9.474,0,0,0-9.458,9.458c0,4.04,6.152,11.708,9.458,15.426,3.352-3.719,9.458-11.432,9.458-15.426a9.474,9.474,0,0,0-9.458-9.458" transform="translate(-0.865)" fill="#c61781"/>
    <path id="Контур_584" data-name="Контур 584" d="M21.285,24.87a5.785,5.785,0,1,1,5.785-5.785,5.79,5.79,0,0,1-5.785,5.785m0-8.907a3.122,3.122,0,1,0,3.122,3.122,3.125,3.125,0,0,0-3.122-3.122" transform="translate(-8.384 -7.194)" fill="#c61781"/>
  </g>
</svg>
