<svg xmlns="http://www.w3.org/2000/svg" xmlns:xlink="http://www.w3.org/1999/xlink" width="31.313" height="28.96" viewBox="0 0 31.313 28.96">
  <defs>
    <clipPath id="clip-path">
      <rect id="Прямоугольник_93" data-name="Прямоугольник 93" width="31.313" height="28.96" fill="#fff"/>
    </clipPath>
  </defs>
  <g id="Сгруппировать_6" data-name="Сгруппировать 6" clip-path="url(#clip-path)">
    <path id="Контур_507" data-name="Контур 507" d="M30.2,5.433h-.026V4.865A2.076,2.076,0,0,0,28.1,2.794H26.753A4.5,4.5,0,0,0,22.594,0H8.719A4.5,4.5,0,0,0,4.56,2.794H3.216A2.073,2.073,0,0,0,1.144,4.865v.567H1.12A1.12,1.12,0,0,0,0,6.552v3.74a1.12,1.12,0,0,0,1.12,1.119h.943a1.12,1.12,0,0,0,1.12-1.119V6.552a1.12,1.12,0,0,0-1.12-1.12H2.037V4.865A1.178,1.178,0,0,1,3.216,3.689H4.3a4.529,4.529,0,0,0-.076.807V23.869c-.011,3.067.011,3.067,0,3.064v.985a1.032,1.032,0,0,0,1.03,1.043H6.428a1.046,1.046,0,0,0,1.047-1.043V26.211H23.838v1.707a1.043,1.043,0,0,0,1.043,1.043h1.173a1.035,1.035,0,0,0,1.034-1.043v-.985c-.011,0,.011,0,0-2.712V4.5a4.491,4.491,0,0,0-.076-.807H28.1a1.179,1.179,0,0,1,1.18,1.176v.567H29.25a1.12,1.12,0,0,0-1.12,1.12v3.74a1.12,1.12,0,0,0,1.12,1.119H30.2a1.117,1.117,0,0,0,1.117-1.119V6.552A1.118,1.118,0,0,0,30.2,5.433M9.388,22.957H7.01a.766.766,0,0,1-.766-.766v-.4a.766.766,0,0,1,.766-.766H9.23a.765.765,0,0,1,.712.483l.157.4a.766.766,0,0,1-.711,1.049m15.682-.766a.766.766,0,0,1-.767.766H21.927a.766.766,0,0,1-.712-1.049l.158-.4a.765.765,0,0,1,.711-.483H24.3a.766.766,0,0,1,.767.766Zm0-10.269v3.4a1.868,1.868,0,0,1-1.63,1.839,56.577,56.577,0,0,1-7.782.5,56.03,56.03,0,0,1-7.783-.5,1.865,1.865,0,0,1-1.631-1.836V5.647a3.2,3.2,0,0,1,3.2-3.216H21.87a3.206,3.206,0,0,1,3.2,3.216Z" fill="#fff"/>
  </g>
</svg>
