<svg xmlns="http://www.w3.org/2000/svg" xmlns:xlink="http://www.w3.org/1999/xlink" width="34.322" height="20.004" viewBox="0 0 34.322 20.004">
  <defs>
    <clipPath id="clip-path">
      <rect id="Прямоугольник_95" data-name="Прямоугольник 95" width="34.322" height="20.004" fill="#fff"/>
    </clipPath>
  </defs>
  <g id="Сгруппировать_10" data-name="Сгруппировать 10" clip-path="url(#clip-path)">
    <path id="Контур_509" data-name="Контур 509" d="M27.835,7.029a6.468,6.468,0,0,0-1.51.18l-2.1-5.6h2.864a.757.757,0,1,1,0,1.513.805.805,0,0,0,0,1.61,2.365,2.365,0,0,0,0-4.731H23.062a.806.806,0,0,0-.754,1.086l.2.521,1.15,3.062a.807.807,0,0,0-.268-.048l-6.208,0H13.988a.813.813,0,0,0-.387.1L12.469,1.608h1.056a.8.8,0,0,0,0-1.608H9.515a.8.8,0,0,0,0,1.608H10.76l1.6,4.4L10.275,8.254a6.485,6.485,0,1,0,2.649,6.066h.857A2.265,2.265,0,0,0,15.9,15.781a2.191,2.191,0,0,0,.77-.137,2.258,2.258,0,0,0,1.256-3.133l6.052-6.539a.8.8,0,0,0,.109-.154l.735,1.956a6.483,6.483,0,1,0,3.014-.746M6.487,18.4A4.879,4.879,0,1,1,9.17,9.445L5.9,12.97a.8.8,0,0,0-.15.867.809.809,0,0,0,.737.483H11.3A4.884,4.884,0,0,1,6.487,18.4M8.33,12.713l2.016-2.173a4.856,4.856,0,0,1,.95,2.173Zm5.454,0h-.86a6.461,6.461,0,0,0-1.471-3.367l1.522-1.641,1.478,4.073a2.253,2.253,0,0,0-.669.935m3.4-1.764-.432.466a2.24,2.24,0,0,0-.776-.162L14.2,6.382l.14-.15h2.838l4.368,0ZM27.835,18.4a4.875,4.875,0,0,1-2.442-9.1l1.689,4.5a.8.8,0,0,0,.754.52.823.823,0,0,0,.28-.05.8.8,0,0,0,.47-1.037L26.9,8.73a4.879,4.879,0,1,1,.939,9.666" transform="translate(0 0)" fill="#fff"/>
  </g>
</svg>
