<svg xmlns="http://www.w3.org/2000/svg" xmlns:xlink="http://www.w3.org/1999/xlink" width="30" height="30" viewBox="0 0 30 30">
  <defs>
    <clipPath id="clip-path">
      <rect id="Прямоугольник_126" data-name="Прямоугольник 126" width="30" height="30" transform="translate(0 0)" fill="#dd0745"/>
    </clipPath>
  </defs>
  <g id="Сгруппировать_73" data-name="Сгруппировать 73" transform="translate(0 0)">
    <g id="Сгруппировать_72" data-name="Сгруппировать 72" transform="translate(0 0)" clip-path="url(#clip-path)">
      <path id="Контур_615" data-name="Контур 615" d="M9.4,36.976a2.4,2.4,0,1,0,.906,3.271v0A2.407,2.407,0,0,0,9.4,36.976M9.26,39.655a1.2,1.2,0,1,1-1.039-1.788A1.2,1.2,0,0,1,9.26,39.655" transform="translate(-2.181 -13.751)" fill="#dd0745"/>
      <path id="Контур_616" data-name="Контур 616" d="M29.525,7.645l-1.161-.891,1.161-.891a1.2,1.2,0,0,0-.731-2.15H23.33A10.393,10.393,0,0,0,22.175.6,1.2,1.2,0,0,0,20.09.609l-1.759,3.1H11.663L9.9.606A1.2,1.2,0,0,0,7.814.6a10.346,10.346,0,0,0-1.165,3.11H1.2A1.2,1.2,0,0,0,.469,5.862l1.162.892L.47,7.645a1.2,1.2,0,0,0,.73,2.15H7.247c.437,1.048.583,1.136,3.766,6.792L8.358,21.258a4.676,4.676,0,1,0-1.079,8.565c3-.829,3.233-3.549,6.606-8.864.2-.361.889,0,1.768-.182a.45.45,0,0,1,.454.192l3.772,6.639a.1.1,0,0,1,.007.014,4.676,4.676,0,1,0,8.132-4.617h0a4.68,4.68,0,0,0-6.372-1.758l-.016.009L18.974,16.58c3.169-5.633,3.285-5.634,3.761-6.785h6.059a1.2,1.2,0,0,0,.731-2.15M21.135,1.2a9.162,9.162,0,0,1,.978,2.514h-2.4ZM1.2,8.6,2.981,7.229a.6.6,0,0,0,0-.952L1.2,4.911H6.477a10.644,10.644,0,0,0,.355,3.683ZM9.059,27.028a3.476,3.476,0,1,1-.867-4.439.6.6,0,0,0,.891-.176L11.7,17.8a12.97,12.97,0,0,0,1.387,2.224c-.129.134-4,6.941-4.031,7M21.8,22.588a3.476,3.476,0,1,1,1.227,6.079c-2.3-.634-2.424-2.717-5.877-8.289-.686-1.214-1.841-.592-2.579-.821-1.1-.343-5.919-9.41-6.342-10.541,0-.011,0-.021-.007-.031A9.241,9.241,0,0,1,8.855,1.2C12.539,7.687,20.863,22.332,20.91,22.413a.6.6,0,0,0,.892.176m-3.517-7.222-2.6-4.571.566-1h5.178c-.24.5-.208.393-3.146,5.571M14.44,8.595l-2.1-3.683c.091,0,9.521,0,16.45,0L27.013,6.277a.6.6,0,0,0,0,.952l1.779,1.366Z" transform="translate(0 0)" fill="#dd0745"/>
      <path id="Контур_617" data-name="Контур 617" d="M36.886,41.461A2.4,2.4,0,1,0,34.8,40.244a2.4,2.4,0,0,0,2.088,1.217m-1.159-2.72A1.2,1.2,0,1,1,37.474,40.1h0a1.186,1.186,0,0,1-.909.113,1.2,1.2,0,0,1-.839-1.475" transform="translate(-12.93 -13.747)" fill="#dd0745"/>
      <path id="Контур_618" data-name="Контур 618" d="M22.019,24.587a1.5,1.5,0,1,0,2.134-.017,1.54,1.54,0,0,0-2.134.017" transform="translate(-8.098 -9.056)" fill="#dd0745"/>
    </g>
  </g>
</svg>
