<svg xmlns="http://www.w3.org/2000/svg" xmlns:xlink="http://www.w3.org/1999/xlink" width="31.349" height="22.92" viewBox="0 0 31.349 22.92">
  <defs>
    <clipPath id="clip-path">
      <rect id="Прямоугольник_92" data-name="Прямоугольник 92" width="31.349" height="22.92" fill="#707070"/>
    </clipPath>
  </defs>
  <g id="Сгруппировать_1" data-name="Сгруппировать 1" clip-path="url(#clip-path)">
    <path id="Контур_506" data-name="Контур 506" d="M31.349,6.112a1.64,1.64,0,0,0-1.456-1.63l-1.715-.193a.859.859,0,0,0-.955.853V6.555a5.2,5.2,0,0,0-.849-.225l-.025-.048-1.7-3.237A5.2,5.2,0,0,0,20.491.281l-1.3-.112a34.632,34.632,0,0,0-6.829,0l-1.3.112A5.2,5.2,0,0,0,6.912,3.045l-1.7,3.237-.025.048a5.2,5.2,0,0,0-1.061.309v-1.5a.859.859,0,0,0-.955-.853l-1.715.193A1.64,1.64,0,0,0,0,6.112a.884.884,0,0,0,.834.882l2.376.132c-.111.076-.219.155-.325.24A6.331,6.331,0,0,0,.529,12.3v8.046a2.58,2.58,0,0,0,5.159,0v-.756H25.872v.756a2.58,2.58,0,0,0,5.159,0V12.3a6.33,6.33,0,0,0-2.357-4.928c-.11-.089-.225-.172-.342-.251l2.182-.121a.884.884,0,0,0,.835-.882M7.8,3.509a4.182,4.182,0,0,1,3.359-2.233l1.3-.112a33.8,33.8,0,0,1,6.657,0l1.3.112a4.182,4.182,0,0,1,3.359,2.233l1.425,2.716-6.053-.3a59.039,59.039,0,0,0-6.711,0l-6.053.3Zm.448,8.784a1.166,1.166,0,0,1-1.262.974l-3.694-.353a1.166,1.166,0,0,1-1.048-1.292l.058-.515a1.166,1.166,0,0,1,1.43-1l3.636.869a1.166,1.166,0,0,1,.88,1.321m11.188,2.2H12.081a2.259,2.259,0,0,1-2.259-2.259,1.235,1.235,0,0,1,1.235-1.235h9.4a1.235,1.235,0,0,1,1.235,1.235,2.259,2.259,0,0,1-2.259,2.259m9.781-3.381.058.515a1.166,1.166,0,0,1-1.048,1.292l-3.694.353a1.166,1.166,0,0,1-.382-2.295l3.636-.869a1.166,1.166,0,0,1,1.43,1" transform="translate(0 0)" fill="#707070"/>
  </g>
</svg>
