<svg id="Сгруппировать_61" data-name="Сгруппировать 61" xmlns="http://www.w3.org/2000/svg" xmlns:xlink="http://www.w3.org/1999/xlink" width="36.286" height="35.238" viewBox="0 0 36.286 35.238">
  <defs>
    <clipPath id="clip-path">
      <rect id="Прямоугольник_113" data-name="Прямоугольник 113" width="36.286" height="35.238" fill="#1581c4"/>
    </clipPath>
  </defs>
  <g id="Сгруппировать_60" data-name="Сгруппировать 60" transform="translate(0 0)" clip-path="url(#clip-path)">
    <path id="Контур_577" data-name="Контур 577" d="M9.93,13.5l-7.324.857a.619.619,0,0,0-.544.686h0L3.041,23.4a.623.623,0,0,0-.121.128L1.156,26.342a1.033,1.033,0,0,1-.181.2A3.078,3.078,0,0,0,.21,29.905l1.329,4.938v5a.619.619,0,0,0,1.237,0V35.078a.6.6,0,0,0,.016-.338l-1.4-5.19a.618.618,0,0,0-.024-.071A1.822,1.822,0,0,1,1.8,27.462,2.217,2.217,0,0,0,2.2,27l1.069-1.7.315,2.688a.743.743,0,0,0,1.466.061l.769-3.847a.621.621,0,0,0,.012-.121.491.491,0,0,1,.49-.49.483.483,0,0,1,.49.477v4.2a.616.616,0,0,0,.074.292l.027.05.07.135a.62.62,0,0,0,.148.187c.463.4.721,2.342.682,3.013a4.969,4.969,0,0,1-.716,2.43.63.63,0,0,0-.1.335v5.248a.619.619,0,0,0,1.237,0V34.891a6.284,6.284,0,0,0,.812-2.868A8.965,8.965,0,0,0,8.5,28.831l3.182-.373a.619.619,0,0,0,.544-.685h0L10.616,14.046a.613.613,0,0,0-.676-.544H9.93M8.044,27.638V24.086a1.727,1.727,0,0,0-3.453-.068l-.145.725L3.367,15.518,9.46,14.8l1.463,12.5Z" transform="translate(0 -5.343)" fill="#1581c4"/>
    <path id="Контур_578" data-name="Контур 578" d="M51.518,14.458a.893.893,0,0,1-.172-.162l-1.813-2.46a.6.6,0,0,0-.111-.1l.339-7.709a.619.619,0,0,0-.592-.645l-6.773-.3a.616.616,0,0,0-.644.587v0l-.558,12.7a.619.619,0,0,0,.592.645l2.874.126a8.683,8.683,0,0,0-.263,2.926,5.866,5.866,0,0,0,.923,2.567l.027,12.969a.618.618,0,1,0,1.236,0L46.556,22.44a.624.624,0,0,0-.12-.37,4.548,4.548,0,0,1-.812-2.157,5.381,5.381,0,0,1,.41-2.768.627.627,0,0,0,.135-.2l.055-.131a.141.141,0,0,0,0-.017c0-.009.013-.017.018-.026a.619.619,0,0,0,.052-.3l-.279-3.84a.4.4,0,0,1,.663-.334.4.4,0,0,1,.138.275.58.58,0,0,0,.02.121l.963,3.479a.732.732,0,0,0,1.438-.163l.1-2.347,1.008,1.37a2.078,2.078,0,0,0,.413.407,1.624,1.624,0,0,1,.511,1.766.624.624,0,0,0-.019.073l-.932,4.854a.594.594,0,0,0,.034.321l.855,13.312a.62.62,0,0,0,.618.579h.04a.618.618,0,0,0,.577-.657v-.007l-.867-13.528.885-4.61a2.878,2.878,0,0,0-.944-3.087m-3.474-2.044a1.638,1.638,0,1,0-3.262.306l.233,3.2-2.556-.112.5-11.465,5.539.242-.359,8.176Z" transform="translate(-16.304 -1.221)" fill="#1581c4"/>
    <path id="Контур_579" data-name="Контур 579" d="M32.748,3.731a.617.617,0,0,0-.547-.68h-.01l-1.707-.161L30.508.625A.618.618,0,0,0,29.9,0h-8.47a.618.618,0,0,0-.619.618h0v11.9c-.03.042-.06.085-.086.129a1.562,1.562,0,0,0,.086,1.685v.031a1.512,1.512,0,0,0-.559.665,1.571,1.571,0,0,0,.327,1.72,1.617,1.617,0,0,0-.461.746,1.57,1.57,0,0,0,.393,1.48,1.565,1.565,0,0,0,.833,2.648l1.177.212v.011a2.036,2.036,0,0,0,.938,2.181V34.344a.619.619,0,1,0,1.237.039V23.612a.62.62,0,0,0-.444-.593c-.479-.142-.548-.363-.5-1.01a1.566,1.566,0,0,0,1.191-2.457,1.492,1.492,0,0,0-.106-.124,1.569,1.569,0,0,0,.32-.6v-.008a1.584,1.584,0,0,0,.011-.694,1.594,1.594,0,0,0,.593-.692v0a1.547,1.547,0,0,0,.06-1.055l.135.091,1.353.9a4.175,4.175,0,0,0-.8,2.512,4.223,4.223,0,0,0,.639,2.287l.019.473a.618.618,0,0,0,.618.595h.025a.619.619,0,0,0,.594-.642l-.025-.651a.617.617,0,0,0-.121-.341,2.965,2.965,0,0,1-.512-1.718,2.732,2.732,0,0,1,.75-1.989.618.618,0,0,0,.2-.442l.006-.3a.619.619,0,0,0-.274-.527l-1.782-1.19-.752-.5a.59.59,0,1,1,.589-1.022l3.766,2.175a3.765,3.765,0,0,1,.875.927,9.48,9.48,0,0,1,.176,3.234c-.015.258-.03.495-.036.7-.016.549-.225,1.981-.984,2.025a.619.619,0,0,0-.582.621l.056,10.963a.619.619,0,0,0,.619.616h0a.619.619,0,0,0,.615-.622l-.054-10.47c1.088-.434,1.529-1.866,1.565-3.1.005-.2.019-.423.034-.665a10.342,10.342,0,0,0-.242-3.708,3.3,3.3,0,0,0-.84-1.112.624.624,0,0,0,.076-.233Zm-10.7-2.495h7.219l-.016,1.536-4.454-.423a.614.614,0,0,0-.673.548h0L22.863,14.456l-.555-.242a1.491,1.491,0,0,0-.263-.083Zm2.58,15.695a.339.339,0,0,1-.318.205.3.3,0,0,1-.117-.03l-2.629-1.148a.336.336,0,0,1-.174-.442h0a.323.323,0,0,1,.236-.187.2.2,0,0,1,.068-.008.337.337,0,0,1,.126.028L24.449,16.5a.332.332,0,0,1,.176.434m-.674,1.4a.341.341,0,0,1,0,.178.336.336,0,0,1-.322.245.3.3,0,0,1-.083-.014l-2-.523a.333.333,0,0,1-.242-.394.349.349,0,0,1,.331-.258.414.414,0,0,1,.077.008l1.122.3.853.369a1.458,1.458,0,0,0,.26.09m-.113,2.39a.327.327,0,0,1-.247.054l-2.03-.366a.331.331,0,1,1,.117-.651l2.029.363a.331.331,0,0,1,.132.6Zm6.5-6.008L27.1,12.837a1.827,1.827,0,0,0-2.679,2.054,1.891,1.891,0,0,0,.108.289l-.508-.222a.588.588,0,0,0,.051-.162L25.285,3.64l6.167.583Z" transform="translate(-7.935 0)" fill="#1581c4"/>
  </g>
</svg>
