<svg xmlns="http://www.w3.org/2000/svg" xmlns:xlink="http://www.w3.org/1999/xlink" width="36" height="35" viewBox="0 0 36 35">
  <defs>
    <clipPath id="clip-path">
      <rect id="Прямоугольник_124" data-name="Прямоугольник 124" width="36" height="35" transform="translate(0 0.265)" fill="#2bb4e8"/>
    </clipPath>
  </defs>
  <g id="Сгруппировать_69" data-name="Сгруппировать 69" transform="translate(0 -0.018)">
    <g id="Сгруппировать_68" data-name="Сгруппировать 68" transform="translate(0 -0.247)" clip-path="url(#clip-path)">
      <path id="Контур_590" data-name="Контур 590" d="M14.595,4h0A.595.595,0,1,1,14,4.595.595.595,0,0,1,14.595,4" transform="translate(-5.675 -1.44)" fill="#2bb4e8"/>
      <path id="Контур_591" data-name="Контур 591" d="M18.595,4h0A.595.595,0,1,1,18,4.595.595.595,0,0,1,18.595,4" transform="translate(-7.296 -1.44)" fill="#2bb4e8"/>
      <path id="Контур_592" data-name="Контур 592" d="M22.595,4h0A.595.595,0,1,1,22,4.595.595.595,0,0,1,22.595,4" transform="translate(-8.918 -1.44)" fill="#2bb4e8"/>
      <path id="Контур_593" data-name="Контур 593" d="M3.568,26.164h11.3V24.975H3.568A2.379,2.379,0,0,1,1.189,22.6V9.514H22.6v4.757h1.189V8.92a.594.594,0,0,0-.595-.595H4.162V6.541H25.57v7.73h1.189V5.946a.594.594,0,0,0-.595-.595H7.136V1.784a.6.6,0,0,1,.595-.595H14.45a.6.6,0,0,1,.371.13l2.647,2.118a.593.593,0,0,0,.371.13h10.7V16.055h1.189V2.973a.594.594,0,0,0-.595-.595H18.048L15.564.391A1.78,1.78,0,0,0,14.45,0H7.73A1.784,1.784,0,0,0,5.946,1.784V5.352H3.568a.6.6,0,0,0-.595.595V8.325H.595A.6.6,0,0,0,0,8.92V22.6a3.571,3.571,0,0,0,3.568,3.568" transform="translate(0 0.182)" fill="#2bb4e8"/>
      <path id="Контур_594" data-name="Контур 594" d="M41.3,37.672A7.76,7.76,0,1,0,38.673,40.3l4.738,4.739a1.857,1.857,0,1,0,2.627-2.625Zm-2.109.747c-.1.1-.209.2-.32.291-.077.065-.161.124-.241.185a6.569,6.569,0,1,1,1.262-1.261c-.059.078-.119.159-.178.234-.1.114-.2.223-.3.331-.072.077-.145.15-.222.222Zm5.535,5.973a.674.674,0,0,1-.472-.2L39.661,39.6c.165-.139.323-.285.476-.437l.024-.023q.231-.232.443-.483L45.2,43.253a.667.667,0,0,1-.471,1.138" transform="translate(-10.904 -10.315)" fill="#2bb4e8"/>
      <path id="Контур_595" data-name="Контур 595" d="M36.107,29.4a5.711,5.711,0,1,0,5.711,5.711A5.711,5.711,0,0,0,36.107,29.4m0,10.153a4.442,4.442,0,1,1,4.442-4.442,4.442,4.442,0,0,1-4.442,4.442" transform="translate(-12.321 -11.734)" fill="#2bb4e8"/>
      <path id="Контур_596" data-name="Контур 596" d="M35,36.973h1.189a1.784,1.784,0,0,1,1.784-1.784V34A2.977,2.977,0,0,0,35,36.973" transform="translate(-14.188 -13.6)" fill="#2bb4e8"/>
      <path id="Контур_597" data-name="Контур 597" d="M36.182,38.6a.591.591,0,1,0-.591.591.591.591,0,0,0,.591-.591" transform="translate(-14.188 -15.224)" fill="#2bb4e8"/>
      <path id="Контур_598" data-name="Контур 598" d="M40.141,34.591a.591.591,0,1,0-.591.592.591.591,0,0,0,.591-.592" transform="translate(-15.792 -13.6)" fill="#2bb4e8"/>
      <path id="Контур_599" data-name="Контур 599" d="M4.595,18h0A.595.595,0,1,1,4,18.595.595.595,0,0,1,4.595,18" transform="translate(-1.621 -7.115)" fill="#2bb4e8"/>
      <rect id="Прямоугольник_123" data-name="Прямоугольник 123" width="2" height="4" transform="translate(2 13.265)" fill="#2bb4e8"/>
      <path id="Контур_600" data-name="Контур 600" d="M39.189,23.548a.595.595,0,1,0-.595.595.594.594,0,0,0,.595-.595" transform="translate(-15.404 -9.122)" fill="#2bb4e8"/>
      <path id="Контур_601" data-name="Контур 601" d="M25.078,42.595a.595.595,0,1,0-.595.595.594.594,0,0,0,.595-.595" transform="translate(-9.684 -16.843)" fill="#2bb4e8"/>
      <path id="Контур_602" data-name="Контур 602" d="M4,27.595A.595.595,0,1,0,4.595,27,.595.595,0,0,0,4,27.595" transform="translate(-1.621 -10.763)" fill="#2bb4e8"/>
      <path id="Контур_603" data-name="Контур 603" d="M4,21.595A.595.595,0,1,0,4.595,21,.595.595,0,0,0,4,21.595" transform="translate(-1.621 -8.331)" fill="#2bb4e8"/>
      <path id="Контур_604" data-name="Контур 604" d="M44.187,23.548a.595.595,0,1,0-.595.595.594.594,0,0,0,.595-.595" transform="translate(-17.43 -9.122)" fill="#2bb4e8"/>
      <path id="Контур_605" data-name="Контур 605" d="M49.189,26.572a.595.595,0,1,0-.595.595.594.594,0,0,0,.595-.595" transform="translate(-19.457 -10.348)" fill="#2bb4e8"/>
    </g>
  </g>
</svg>
