<svg xmlns="http://www.w3.org/2000/svg" xmlns:xlink="http://www.w3.org/1999/xlink" width="36" height="35" viewBox="0 0 36 35">
  <defs>
    <clipPath id="clip-path">
      <rect id="Прямоугольник_112" data-name="Прямоугольник 112" width="36" height="35" transform="translate(0 -0.1)" fill="#3cce5b"/>
    </clipPath>
  </defs>
  <g id="Сгруппировать_52" data-name="Сгруппировать 52" transform="translate(-0.249 0.1)">
    <g id="Сгруппировать_51" data-name="Сгруппировать 51" transform="translate(0.249 0)" clip-path="url(#clip-path)">
      <path id="Контур_563" data-name="Контур 563" d="M14.416,36.622a.759.759,0,0,1-.759-.759v-6.07a2.276,2.276,0,0,0-2.276-2.276h-1.2L8.124,29.571a.758.758,0,0,1-1.073,0L5,27.517h-1.2a2.276,2.276,0,0,0-2.276,2.276v6.07a.759.759,0,1,1-1.517,0v-6.07A3.8,3.8,0,0,1,3.794,26H5.311a.757.757,0,0,1,.536.222l1.74,1.74,1.74-1.74A.757.757,0,0,1,9.864,26h1.517a3.8,3.8,0,0,1,3.794,3.794v6.07a.759.759,0,0,1-.759.759" transform="translate(-0.299 -6.272)" fill="#3cce5b"/>
      <path id="Контур_564" data-name="Контур 564" d="M8.794,21.587a3.794,3.794,0,1,1,3.794-3.794,3.794,3.794,0,0,1-3.794,3.794m0-6.07a2.276,2.276,0,1,0,2.276,2.276,2.276,2.276,0,0,0-2.276-2.276" transform="translate(-1.505 -3.377)" fill="#3cce5b"/>
      <path id="Контур_565" data-name="Контур 565" d="M4.759,42.622A.759.759,0,0,1,4,41.864v-9.1a.759.759,0,1,1,1.517,0v9.1a.759.759,0,0,1-.759.759" transform="translate(-1.264 -7.72)" fill="#3cce5b"/>
      <path id="Контур_566" data-name="Контур 566" d="M14.759,42.622A.759.759,0,0,1,14,41.864v-9.1a.759.759,0,1,1,1.517,0v9.1a.759.759,0,0,1-.759.759" transform="translate(-3.676 -7.72)" fill="#3cce5b"/>
      <path id="Контур_567" data-name="Контур 567" d="M42.416,36.622a.758.758,0,0,1-.759-.759v-6.07a2.276,2.276,0,0,0-2.276-2.276h-1.2l-2.054,2.054a.758.758,0,0,1-1.073,0L33,27.517h-1.2a2.276,2.276,0,0,0-2.276,2.276v6.07a.759.759,0,1,1-1.517,0v-6.07A3.8,3.8,0,0,1,31.794,26h1.518a.755.755,0,0,1,.536.222l1.74,1.74,1.74-1.74A.755.755,0,0,1,37.864,26h1.517a3.8,3.8,0,0,1,3.794,3.794v6.07a.758.758,0,0,1-.759.759" transform="translate(-7.054 -6.272)" fill="#3cce5b"/>
      <path id="Контур_568" data-name="Контур 568" d="M36.794,21.587a3.794,3.794,0,1,1,3.794-3.794,3.794,3.794,0,0,1-3.794,3.794m0-6.07a2.276,2.276,0,1,0,2.276,2.276,2.276,2.276,0,0,0-2.276-2.276" transform="translate(-8.26 -3.377)" fill="#3cce5b"/>
      <path id="Контур_569" data-name="Контур 569" d="M32.759,42.622A.758.758,0,0,1,32,41.864v-9.1a.759.759,0,1,1,1.517,0v9.1a.758.758,0,0,1-.759.759" transform="translate(-8.019 -7.72)" fill="#3cce5b"/>
      <path id="Контур_570" data-name="Контур 570" d="M42.759,42.622A.758.758,0,0,1,42,41.864v-9.1a.759.759,0,0,1,1.518,0v9.1a.758.758,0,0,1-.759.759" transform="translate(-10.431 -7.72)" fill="#3cce5b"/>
      <path id="Контур_571" data-name="Контур 571" d="M22.311,25.794a.757.757,0,0,1-.536-.222l-2.054-2.054H17.759a.759.759,0,1,1,0-1.517h2.276a.757.757,0,0,1,.536.222l1.74,1.74,1.74-1.74A.755.755,0,0,1,24.587,22h2.276a.759.759,0,0,1,0,1.517H24.9l-2.054,2.054a.757.757,0,0,1-.536.222" transform="translate(-4.4 -5.307)" fill="#3cce5b"/>
      <path id="Контур_572" data-name="Контур 572" d="M35.661,15.175a.759.759,0,0,1-.759-.759V3.794a2.276,2.276,0,0,0-2.276-2.276H3.794A2.276,2.276,0,0,0,1.517,3.794V14.416a.759.759,0,0,1-1.517,0V3.794A3.8,3.8,0,0,1,3.794,0H32.626A3.8,3.8,0,0,1,36.42,3.794V14.416a.759.759,0,0,1-.759.759" transform="translate(-0.299 0)" fill="#3cce5b"/>
      <path id="Контур_573" data-name="Контур 573" d="M29.451,7.517H12.759a.759.759,0,0,1,0-1.517H29.451a.759.759,0,0,1,0,1.517" transform="translate(-3.194 -1.447)" fill="#3cce5b"/>
      <path id="Контур_574" data-name="Контур 574" d="M27.381,12.517H16.759a.759.759,0,0,1,0-1.517H27.381a.759.759,0,1,1,0,1.517" transform="translate(-4.159 -2.654)" fill="#3cce5b"/>
      <path id="Контур_575" data-name="Контур 575" d="M21.276,17.517H19.759a.759.759,0,0,1,0-1.517h1.518a.759.759,0,0,1,0,1.517" transform="translate(-4.882 -3.86)" fill="#3cce5b"/>
      <path id="Контур_576" data-name="Контур 576" d="M27.276,17.517H25.759a.759.759,0,0,1,0-1.517h1.517a.759.759,0,1,1,0,1.517" transform="translate(-6.33 -3.86)" fill="#3cce5b"/>
    </g>
  </g>
</svg>
