<svg id="Сгруппировать_71" data-name="Сгруппировать 71" xmlns="http://www.w3.org/2000/svg" xmlns:xlink="http://www.w3.org/1999/xlink" width="32" height="32" viewBox="0 0 32 32">
  <defs>
    <clipPath id="clip-path">
      <rect id="Прямоугольник_125" data-name="Прямоугольник 125" width="32" height="32" fill="#09b9b9"/>
    </clipPath>
  </defs>
  <g id="Сгруппировать_70" data-name="Сгруппировать 70" clip-path="url(#clip-path)">
    <path id="Контур_606" data-name="Контур 606" d="M29.333,0H2.667A2.67,2.67,0,0,0,0,2.667V29.333A2.67,2.67,0,0,0,2.667,32H29.333A2.67,2.67,0,0,0,32,29.333V2.667A2.67,2.67,0,0,0,29.333,0M2.667,1.067H29.333a1.6,1.6,0,0,1,1.6,1.6v1.6H1.067v-1.6a1.6,1.6,0,0,1,1.6-1.6M29.333,30.933H2.667a1.6,1.6,0,0,1-1.6-1.6v-24H30.933v24a1.6,1.6,0,0,1-1.6,1.6" fill="#09b9b9"/>
    <path id="Контур_607" data-name="Контур 607" d="M6.331,5.024a.506.506,0,0,0,.405,0,.621.621,0,0,0,.176-.112.529.529,0,0,0,.112-.581.565.565,0,0,0-.112-.176.621.621,0,0,0-.176-.112.509.509,0,0,0-.309-.032.339.339,0,0,0-.1.032.29.29,0,0,0-.091.048.5.5,0,0,0-.085.064.556.556,0,0,0-.112.176.528.528,0,0,0,.112.581.621.621,0,0,0,.176.112" transform="translate(-2.8 -1.866)" fill="#09b9b9"/>
    <path id="Контур_608" data-name="Контур 608" d="M10.331,5.024a.5.5,0,0,0,.405,0,.621.621,0,0,0,.176-.112.53.53,0,0,0,.155-.379.451.451,0,0,0-.043-.2.621.621,0,0,0-.112-.176.914.914,0,0,0-.08-.064.4.4,0,0,0-.1-.048.339.339,0,0,0-.1-.032.509.509,0,0,0-.309.032.621.621,0,0,0-.176.112.556.556,0,0,0-.112.176.528.528,0,0,0,.112.581.621.621,0,0,0,.176.112" transform="translate(-4.667 -1.866)" fill="#09b9b9"/>
    <path id="Контур_609" data-name="Контур 609" d="M14.155,4.912a.621.621,0,0,0,.176.112.5.5,0,0,0,.405,0,.621.621,0,0,0,.176-.112.528.528,0,0,0,.112-.581.556.556,0,0,0-.112-.176.621.621,0,0,0-.176-.112.509.509,0,0,0-.309-.032.339.339,0,0,0-.1.032.3.3,0,0,0-.091.048.524.524,0,0,0-.085.064.556.556,0,0,0-.112.176.529.529,0,0,0-.043.2.451.451,0,0,0,.043.2.621.621,0,0,0,.112.176" transform="translate(-6.533 -1.866)" fill="#09b9b9"/>
    <path id="Контур_610" data-name="Контур 610" d="M27.733,13H26.667A2.67,2.67,0,0,0,24,15.667v12.8a.535.535,0,0,0,.056.238L25.6,31.793V33.8a1.6,1.6,0,0,0,3.2,0V31.793l1.547-3.087a.528.528,0,0,0,.053-.238v-12.8A2.67,2.67,0,0,0,27.733,13m.2,18.133H26.463L25.27,28.747l1.93-.772,1.93.772Zm1.4-11.733H25.067V18.333h4.267Zm-4.267,1.067h1.6v6.572l-1.6.64Zm2.667,6.572V20.467h1.6v7.212ZM25.067,15.667a1.6,1.6,0,0,1,1.6-1.6h1.067a1.6,1.6,0,0,1,1.6,1.6v1.6H25.067ZM27.733,33.8a.533.533,0,0,1-1.067,0V32.2h1.067Z" transform="translate(-11.2 -6.067)" fill="#09b9b9"/>
    <path id="Контур_611" data-name="Контур 611" d="M19.746,24.764a6.4,6.4,0,0,0,0,8.785l.775-.732a5.333,5.333,0,0,1,0-7.321Z" transform="translate(-8.4 -11.557)" fill="#09b9b9"/>
    <path id="Контур_612" data-name="Контур 612" d="M38.049,33.549a6.4,6.4,0,0,0,0-8.785l-.775.732a5.333,5.333,0,0,1,0,7.321Z" transform="translate(-17.395 -11.557)" fill="#09b9b9"/>
    <path id="Контур_613" data-name="Контур 613" d="M44.024,22.815l-2.566-.32A8.485,8.485,0,0,0,40.8,20.9l1.588-2.041a.534.534,0,0,0-.044-.705l-2.263-2.263a.533.533,0,0,0-.7-.044l-2.323,1.807.655.842,1.951-1.518,1.6,1.6-1.517,1.947a.534.534,0,0,0-.037.6,7.379,7.379,0,0,1,.821,1.981.532.532,0,0,0,.451.4l2.453.307v2.258l-2.453.307a.533.533,0,0,0-.451.4A7.389,7.389,0,0,1,39.7,28.76a.533.533,0,0,0,.037.6l1.517,1.951-1.6,1.6-1.951-1.518-.655.842,2.323,1.807a.534.534,0,0,0,.7-.044l2.263-2.263a.534.534,0,0,0,.044-.705L40.8,28.987a8.456,8.456,0,0,0,.66-1.592l2.566-.32a.533.533,0,0,0,.467-.53v-3.2a.533.533,0,0,0-.467-.529" transform="translate(-17.291 -7.345)" fill="#09b9b9"/>
    <path id="Контур_614" data-name="Контур 614" d="M14.116,15.849a.533.533,0,0,0-.7.044l-2.263,2.263a.534.534,0,0,0-.044.705L12.693,20.9a8.521,8.521,0,0,0-.66,1.592l-2.566.32a.533.533,0,0,0-.467.53v3.2a.533.533,0,0,0,.467.529l2.566.32a8.491,8.491,0,0,0,.66,1.592l-1.588,2.042a.533.533,0,0,0,.044.7l2.263,2.263a.533.533,0,0,0,.7.044l2.323-1.807-.655-.841-1.951,1.518-1.6-1.6,1.517-1.951a.531.531,0,0,0,.037-.6,7.424,7.424,0,0,1-.821-1.981.533.533,0,0,0-.451-.4l-2.453-.307V23.815l2.453-.307a.532.532,0,0,0,.451-.4,7.414,7.414,0,0,1,.821-1.981.532.532,0,0,0-.037-.6l-1.517-1.951,1.6-1.6,1.951,1.518.655-.842Z" transform="translate(-4.2 -7.344)" fill="#09b9b9"/>
  </g>
</svg>
