<svg xmlns="http://www.w3.org/2000/svg" width="21.041" height="21.019" viewBox="0 0 21.041 21.019">
  <path id="Контур_436" data-name="Контур 436" d="M21.593,22.673a2.157,2.157,0,0,1-1.927.975,14.314,14.314,0,0,1-2.459-.332A20.278,20.278,0,0,1,8.3,17.932,20.278,20.278,0,0,1,2.919,9.027,16.578,16.578,0,0,1,2.587,6.59a2.125,2.125,0,0,1,.953-1.905L6.264,2.869A1.408,1.408,0,0,1,8.3,3.4l2.215,4.275a1.433,1.433,0,0,1-.377,1.772L8.147,11a15.5,15.5,0,0,0,3.013,4.12,15.859,15.859,0,0,0,4.054,2.968l1.573-2.016a1.406,1.406,0,0,1,1.772-.377l4.3,2.215a1.408,1.408,0,0,1,.532,2.038Z" transform="translate(-2.583 -2.632)"/>
</svg>
