<svg id="Сгруппировать_63" data-name="Сгруппировать 63" xmlns="http://www.w3.org/2000/svg" xmlns:xlink="http://www.w3.org/1999/xlink" width="31.841" height="33.864" viewBox="0 0 31.841 33.864">
  <defs>
    <clipPath id="clip-path">
      <rect id="Прямоугольник_114" data-name="Прямоугольник 114" width="31.841" height="33.864" fill="#f3003e"/>
    </clipPath>
  </defs>
  <g id="Сгруппировать_62" data-name="Сгруппировать 62" clip-path="url(#clip-path)">
    <path id="Контур_580" data-name="Контур 580" d="M6.937,27.642h0a4.6,4.6,0,0,0,3.03-1.349L22.282,13.977a.846.846,0,0,0,1.069-.1l2.886-2.886.263,1.18-6.875,6.875a.845.845,0,0,0,0,1.2.833.833,0,0,0,.6.246.869.869,0,0,0,.6-.246l7.206-7.206a.867.867,0,0,0,.229-.789l-.6-2.682.552-.552a5.159,5.159,0,0,0,0-7.291L28,1.509a5.159,5.159,0,0,0-7.291,0L15.849,6.372a.84.84,0,0,0-.246.6.821.821,0,0,0,.144.467L3.406,19.766a4.587,4.587,0,0,0-1.341,2.971L1.827,26.5.248,28.084a.845.845,0,0,0,0,1.2.833.833,0,0,0,.6.246.869.869,0,0,0,.6-.246L2.9,27.838ZM21.909,2.705a3.458,3.458,0,0,1,4.889,0l.212.212a3.458,3.458,0,0,1,0,4.889l-4.261,4.261L21.077,10.4,17.648,6.966ZM3.754,22.855A2.932,2.932,0,0,1,4.6,20.971L16.927,8.647,19,10.718l2.071,2.071L8.761,25.1a2.9,2.9,0,0,1-1.918.849l-3.3.17Z" transform="translate(0 0)" fill="#f3003e"/>
    <path id="Контур_581" data-name="Контур 581" d="M63.362,221.647a.853.853,0,1,0-1.681.289c.721,4.193-2.563,6.493-5.441,7.681a18.111,18.111,0,0,1-2.232.755,4.261,4.261,0,0,0-.569-.518,11.6,11.6,0,0,0-5.627-2.309,6.023,6.023,0,0,0-4.38.891,2.188,2.188,0,0,0-.611,2.792c.628,1.29,3,1.6,4.88,1.638a23.979,23.979,0,0,0,4.414-.356,18.382,18.382,0,0,1-6.188,1.579,28.111,28.111,0,0,1-10.245-.4.848.848,0,1,0-.5,1.621,22.41,22.41,0,0,0,6.23.738,40.082,40.082,0,0,0,4.711-.28c2.657-.314,7.257-1.146,8.276-3.123a1.768,1.768,0,0,0,.2-.7l.764-.229a13.985,13.985,0,0,0,6.026-3.514,7.275,7.275,0,0,0,1.969-6.561m-14.82,9.532c-2.708.059-4-.441-4.176-.687a.52.52,0,0,1,.161-.738c.959-.781,4.252-1.036,7.393,1.078a21.82,21.82,0,0,1-3.378.348" transform="translate(-31.65 -202.187)" fill="#f3003e"/>
  </g>
</svg>
