<svg id="Сгруппировать_67" data-name="Сгруппировать 67" xmlns="http://www.w3.org/2000/svg" xmlns:xlink="http://www.w3.org/1999/xlink" width="36" height="36" viewBox="0 0 36 36">
  <defs>
    <clipPath id="clip-path">
      <rect id="Прямоугольник_122" data-name="Прямоугольник 122" width="36" height="36" fill="#f7d349"/>
    </clipPath>
  </defs>
  <g id="Сгруппировать_66" data-name="Сгруппировать 66" clip-path="url(#clip-path)">
    <path id="Контур_585" data-name="Контур 585" d="M35.594,57.733l-3.938-1.687A.555.555,0,0,0,31.438,56H5.563A.562.562,0,0,0,5,56.563v3.374a.562.562,0,0,0,.563.563H31.438a.546.546,0,0,0,.219-.046l3.938-1.687a.562.562,0,0,0,0-1.034M8.938,59.375H6.125V57.126H8.938Zm21.938,0H10.063v-.562H30.875Zm0-1.687H10.063v-.562H30.875ZM32,59.083V57.4l1.946.854Z" transform="translate(-2.188 -24.5)" fill="#f7d349"/>
    <rect id="Прямоугольник_116" data-name="Прямоугольник 116" width="6" height="1" transform="translate(21 7)" fill="#f7d349"/>
    <rect id="Прямоугольник_117" data-name="Прямоугольник 117" width="1" height="1" transform="translate(28 7)" fill="#f7d349"/>
    <rect id="Прямоугольник_118" data-name="Прямоугольник 118" width="5" height="1" transform="translate(21 10)" fill="#f7d349"/>
    <path id="Контур_586" data-name="Контур 586" d="M15.125,35H14v5.625a.562.562,0,0,0,.563.563h7.875V40.063H15.125Z" transform="translate(-6.125 -15.313)" fill="#f7d349"/>
    <rect id="Прямоугольник_119" data-name="Прямоугольник 119" width="1" height="1" transform="translate(10 23)" fill="#f7d349"/>
    <rect id="Прямоугольник_120" data-name="Прямоугольник 120" width="1" height="1" transform="translate(10 20)" fill="#f7d349"/>
    <rect id="Прямоугольник_121" data-name="Прямоугольник 121" width="2" height="1" transform="translate(12 23)" fill="#f7d349"/>
    <path id="Контур_587" data-name="Контур 587" d="M32.625,0a.562.562,0,0,0-.562.563V3.375H3.938V.563A.563.563,0,0,0,3.375,0C3.341,0,0,.051,0,4.5V26.438c0,2.143,2.138,3.139,3.263,3.375H32.737C33.862,29.587,36,28.592,36,26.438V4.5C36,.051,32.659,0,32.625,0M1.125,4.5c0-2.3,1.013-3.032,1.688-3.262V23.176a4.935,4.935,0,0,0-1.687.916ZM32.563,28.688H3.437c-.337-.078-2.312-.624-2.312-2.25,0-1.755,2.25-2.25,2.362-2.25a.562.562,0,0,0,.45-.562V4.5H32.063V23.625a.562.562,0,0,0,.45.563s2.362.5,2.362,2.25c0,1.637-1.963,2.166-2.312,2.25M34.875,24.1a4.965,4.965,0,0,0-1.687-.917V1.238c.669.236,1.688.973,1.688,3.262Z" fill="#f7d349"/>
    <path id="Контур_588" data-name="Контур 588" d="M27.5,17.5a6.713,6.713,0,0,0-2.25.394V13.563A.562.562,0,0,0,24.688,13H14.563a.563.563,0,0,0-.562.563V23.688a.563.563,0,0,0,.563.563H20.75A6.75,6.75,0,1,0,27.5,17.5M15.125,23.125v-9h9v4.286a6.751,6.751,0,0,0-3.274,4.714Zm9-3.375v3.375H21.987a5.627,5.627,0,0,1,2.138-3.375M27.5,29.875a5.625,5.625,0,0,1-5.625-5.625h2.813a.562.562,0,0,0,.563-.562V19.1A5.625,5.625,0,1,1,27.5,29.875" transform="translate(-6.125 -5.688)" fill="#f7d349"/>
    <path id="Контур_589" data-name="Контур 589" d="M23.25,20H22.125v1.125H21V22.25h1.125v1.125H23.25V22.25h1.125V21.125H23.25Z" transform="translate(-9.188 -8.75)" fill="#f7d349"/>
  </g>
</svg>
