<svg xmlns="http://www.w3.org/2000/svg" xmlns:xlink="http://www.w3.org/1999/xlink" width="25.513" height="31.349" viewBox="0 0 25.513 31.349">
  <defs>
    <clipPath id="clip-path">
      <rect id="Прямоугольник_94" data-name="Прямоугольник 94" width="25.513" height="31.349" fill="#fff"/>
    </clipPath>
  </defs>
  <g id="Сгруппировать_8" data-name="Сгруппировать 8" clip-path="url(#clip-path)">
    <path id="Контур_508" data-name="Контур 508" d="M23.126,27.147l-.007-6.272c0-1.493-1.076-9.336-1.146-9.687a1.525,1.525,0,0,0-1.5-1.225H5.036a1.525,1.525,0,0,0-1.5,1.225c-1.01,7.541-1.144,7.5-1.146,9.687L2.388,27l0,3.663a.69.69,0,0,0,.69.69H5.066a.69.69,0,0,0,.69-.69v-2h14v2a.69.69,0,0,0,.69.69h1.99a.69.69,0,0,0,.69-.69ZM5.215,25.7a1.407,1.407,0,1,1,1.407-1.407A1.407,1.407,0,0,1,5.215,25.7m12.559-.959a1.018,1.018,0,0,1-1.017,1.018h-8a1.017,1.017,0,0,1-1.017-1.018v-.777a1.017,1.017,0,0,1,1.017-1.018h8a1.018,1.018,0,0,1,1.017,1.018ZM20.3,25.7A1.407,1.407,0,1,1,21.7,24.292,1.407,1.407,0,0,1,20.3,25.7m.685-7.707H4.53a.724.724,0,0,1-.71-.867l.593-4.705a.725.725,0,0,1,.71-.582H20.389a.725.725,0,0,1,.711.582l.593,4.705a.724.724,0,0,1-.71.867M23.444,0H2.069A2.069,2.069,0,0,0,0,2.068V21.983a1.342,1.342,0,0,0,1.342,1.342l0-2.45a26.483,26.483,0,0,1,.445-4.7c.167-1.172.4-2.781.71-5.124l.011-.067A2.582,2.582,0,0,1,5.036,8.913H20.477A2.582,2.582,0,0,1,23,10.982c.07.353,1.165,8.286,1.167,9.892l0,2.45a1.342,1.342,0,0,0,1.342-1.342V2.068A2.069,2.069,0,0,0,23.444,0" fill="#fff"/>
  </g>
</svg>
