<svg id="Сгруппировать_21" data-name="Сгруппировать 21" xmlns="http://www.w3.org/2000/svg" width="37.659" height="34.737" viewBox="0 0 37.659 34.737">
  <path id="Контур_469" data-name="Контур 469" d="M107.233,369.886c8.9,0,16.815,7.943,13.751,17.258a13.853,13.853,0,0,1-8.162,8.093,20.441,20.441,0,0,1-6.965.912l-1,0h-.692c-5.1,0-12.142-.622-16.216-6.028,5.583,0,4.482-6.24,5.2-9.94,1.1-5.639,6.68-9.431,12.092-10.162a14.879,14.879,0,0,1,1.99-.134m0-1.974a16.911,16.911,0,0,0-2.255.151,18,18,0,0,0-8.622,3.648,13.648,13.648,0,0,0-5.143,8.093,26,26,0,0,0-.333,2.944,13.3,13.3,0,0,1-.732,4.206c-.337.717-.841,1.194-2.2,1.194a1.974,1.974,0,0,0-1.577,3.163c4.6,6.108,12.36,6.814,17.793,6.814h1.694a21.924,21.924,0,0,0,7.655-1.036,16.521,16.521,0,0,0,5.6-3.554,14.318,14.318,0,0,0,3.743-5.773,14.5,14.5,0,0,0,.575-7.01,14.214,14.214,0,0,0-2.544-6,16.44,16.44,0,0,0-5.914-4.987,17.286,17.286,0,0,0-7.745-1.85" transform="translate(-85.973 -367.912)" fill="#fff"/>
  <path id="Контур_470" data-name="Контур 470" d="M143.426,405.444a1.9,1.9,0,1,1-1.9-1.9,1.9,1.9,0,0,1,1.9,1.9" transform="translate(-124.705 -393.634)" fill="#fff"/>
  <path id="Контур_471" data-name="Контур 471" d="M175.265,405.444a1.9,1.9,0,1,1-1.9-1.9,1.9,1.9,0,0,1,1.9,1.9" transform="translate(-147.686 -393.634)" fill="#fff"/>
  <path id="Контур_472" data-name="Контур 472" d="M144.858,431.242c-3.213,0-6.107-2.106-6.638-4.863a.987.987,0,0,1,1.939-.373c.312,1.621,2.253,3.328,4.84,3.26,2.695-.071,4.475-1.682,4.841-3.237a.987.987,0,1,1,1.922.452,5.834,5.834,0,0,1-2.3,3.312,7.763,7.763,0,0,1-4.408,1.446l-.193,0" transform="translate(-123.672 -409.266)" fill="#fff"/>
  <g id="Сгруппировать_19" data-name="Сгруппировать 19" transform="translate(7.738 26.907)">
    <path id="Контур_473" data-name="Контур 473" d="M117.7,464.628a3.915,3.915,0,1,0,3.915,3.915A3.915,3.915,0,0,0,117.7,464.628Zm0,5.207a1.292,1.292,0,1,1,1.292-1.292A1.292,1.292,0,0,1,117.7,469.835Z" transform="translate(-113.787 -464.628)" fill="#fff"/>
  </g>
  <g id="Сгруппировать_20" data-name="Сгруппировать 20" transform="translate(21.327 26.907)">
    <path id="Контур_474" data-name="Контур 474" d="M166.545,464.628a3.915,3.915,0,1,0,3.915,3.915A3.915,3.915,0,0,0,166.545,464.628Zm0,5.207a1.292,1.292,0,1,1,1.292-1.292A1.292,1.292,0,0,1,166.545,469.835Z" transform="translate(-162.63 -464.628)" fill="#fff"/>
  </g>
</svg>
