<svg xmlns="http://www.w3.org/2000/svg" width="54.146" height="37.902" viewBox="0 0 54.146 37.902">
  <path id="Контур_465" data-name="Контур 465" d="M53.035,82.933a6.786,6.786,0,0,0-4.769-4.769C44.025,77,27.073,77,27.073,77S10.121,77,5.89,78.11a6.918,6.918,0,0,0-4.769,4.812C0,87.174,0,95.951,0,95.951s0,8.83,1.11,13.018a6.786,6.786,0,0,0,4.769,4.769c4.283,1.163,21.182,1.163,21.182,1.163s16.952,0,21.182-1.11a6.786,6.786,0,0,0,4.769-4.77C54.146,104.781,54.146,96,54.146,96S54.188,87.174,53.035,82.933Zm-31.356,21.14V87.84l14.1,8.122Z" transform="translate(0 -77)" fill="#fff"/>
</svg>
