<svg xmlns="http://www.w3.org/2000/svg" xmlns:xlink="http://www.w3.org/1999/xlink"><defs><symbol viewBox="0 0 25.802 36.5" id="ic-address"><defs></defs><g data-name="Сгруппировать 64" clip-path="url(#ic-address_a)"><path data-name="Контур 582" d="M24.471 36.5H1.331a1.331 1.331 0 0 1 0-2.663h23.14a1.331 1.331 0 0 1 0 2.663" /><path data-name="Контур 583" d="M12.902 30.945a1.25 1.25 0 0 1-.964-.413C10.79 29.338.735 18.5.735 12.167a12.167 12.167 0 1 1 24.333 0c0 6.336-10.055 17.125-11.2 18.365a1.25 1.25 0 0 1-.964.413m0-28.236a9.474 9.474 0 0 0-9.458 9.458c0 4.04 6.152 11.708 9.458 15.426 3.352-3.719 9.458-11.432 9.458-15.426a9.474 9.474 0 0 0-9.458-9.458" /><path data-name="Контур 584" d="M12.901 17.676a5.785 5.785 0 1 1 5.785-5.785 5.79 5.79 0 0 1-5.785 5.785m0-8.907a3.122 3.122 0 1 0 3.122 3.122 3.125 3.125 0 0 0-3.122-3.122" /></g></symbol><clipPath id="ic-address_a"><path data-name="Прямоугольник 115" d="M0 0h25.803v36.5H0z" /></clipPath><symbol viewBox="0 0 9.1 16" id="ic-arrow-left"><path d="M.6 8c0 .2.1.4.2.5L7 15.4c.3.4.9.4 1.2.1.4-.3.4-.9.1-1.2L2.6 7.9l5.7-6.4c.4-.3.3-.9 0-1.2-.4-.3-.9-.3-1.2.1L.8 7.3c-.2.2-.2.5-.2.7z" /></symbol><symbol viewBox="0 0 9.1 16" id="ic-arrow-right"><path d="M8.6 7.9c0-.2-.1-.4-.2-.5L2.1.4C1.8.1 1.2 0 .9.4s-.4.8-.1 1.2L6.5 8 .8 14.4c-.3.4-.3.9.1 1.2s.9.3 1.2-.1l6.2-6.9c.2-.2.3-.5.3-.7z" /></symbol><symbol viewBox="0 0 34.322 20.004" id="ic-bicycle"><defs></defs><g data-name="Сгруппировать 10" clip-path="url(#ic-bicycle_a)"><path data-name="Контур 509" d="M27.835 7.029a6.468 6.468 0 0 0-1.51.18l-2.1-5.6h2.864a.757.757 0 1 1 0 1.513.805.805 0 0 0 0 1.61 2.365 2.365 0 0 0 0-4.731h-4.027a.806.806 0 0 0-.754 1.086l.2.521 1.15 3.062a.807.807 0 0 0-.268-.048H13.988a.813.813 0 0 0-.387.1l-1.132-3.114h1.056a.804.804 0 0 0 0-1.608h-4.01a.804.804 0 0 0 0 1.608h1.245l1.6 4.4-2.085 2.246a6.485 6.485 0 1 0 2.649 6.066h.857a2.265 2.265 0 0 0 2.119 1.461 2.191 2.191 0 0 0 .77-.137 2.258 2.258 0 0 0 1.256-3.133l6.052-6.539a.8.8 0 0 0 .109-.154l.735 1.956a6.483 6.483 0 1 0 3.014-.746M6.487 18.4A4.879 4.879 0 1 1 9.17 9.445L5.9 12.97a.8.8 0 0 0-.15.867.809.809 0 0 0 .737.483H11.3a4.884 4.884 0 0 1-4.813 4.08m1.843-5.687l2.016-2.173a4.856 4.856 0 0 1 .95 2.173zm5.454 0h-.86a6.461 6.461 0 0 0-1.471-3.367l1.522-1.641 1.478 4.073a2.253 2.253 0 0 0-.669.935m3.4-1.764l-.432.466a2.24 2.24 0 0 0-.776-.162L14.2 6.382l.14-.15h7.206zM27.835 18.4a4.875 4.875 0 0 1-2.442-9.1l1.689 4.5a.8.8 0 0 0 .754.52.823.823 0 0 0 .28-.05.8.8 0 0 0 .47-1.037L26.9 8.73a4.879 4.879 0 1 1 .939 9.666" /></g></symbol><clipPath id="ic-bicycle_a"><path data-name="Прямоугольник 95" d="M0 0h34.322v20.004H0z" /></clipPath><symbol viewBox="0 0 31.313 28.96" id="ic-bus"><defs></defs><g data-name="Сгруппировать 6" clip-path="url(#ic-bus_a)"><path data-name="Контур 507" d="M30.2 5.433h-.026v-.568A2.076 2.076 0 0 0 28.1 2.794h-1.347A4.5 4.5 0 0 0 22.594 0H8.719A4.5 4.5 0 0 0 4.56 2.794H3.216a2.073 2.073 0 0 0-2.072 2.071v.567H1.12A1.12 1.12 0 0 0 0 6.552v3.74a1.12 1.12 0 0 0 1.12 1.119h.943a1.12 1.12 0 0 0 1.12-1.119v-3.74a1.12 1.12 0 0 0-1.12-1.12h-.026v-.567a1.178 1.178 0 0 1 1.179-1.176H4.3a4.529 4.529 0 0 0-.076.807v19.373c-.011 3.067.011 3.067 0 3.064v.985a1.032 1.032 0 0 0 1.03 1.043h1.174a1.046 1.046 0 0 0 1.047-1.043v-1.707h16.363v1.707a1.043 1.043 0 0 0 1.043 1.043h1.173a1.035 1.035 0 0 0 1.034-1.043v-.985c-.011 0 .011 0 0-2.712V4.5a4.491 4.491 0 0 0-.076-.807H28.1a1.179 1.179 0 0 1 1.18 1.176v.567h-.03a1.12 1.12 0 0 0-1.12 1.12v3.74a1.12 1.12 0 0 0 1.12 1.119h.95a1.117 1.117 0 0 0 1.117-1.119V6.552A1.118 1.118 0 0 0 30.2 5.433M9.388 22.957H7.01a.766.766 0 0 1-.766-.766v-.4a.766.766 0 0 1 .766-.766h2.22a.765.765 0 0 1 .712.483l.157.4a.766.766 0 0 1-.711 1.049m15.682-.766a.766.766 0 0 1-.767.766h-2.376a.766.766 0 0 1-.712-1.049l.158-.4a.765.765 0 0 1 .711-.483H24.3a.766.766 0 0 1 .767.766zm0-10.269v3.4a1.868 1.868 0 0 1-1.63 1.839 56.577 56.577 0 0 1-7.782.5 56.03 56.03 0 0 1-7.783-.5 1.865 1.865 0 0 1-1.631-1.836V5.647a3.2 3.2 0 0 1 3.2-3.216H21.87a3.206 3.206 0 0 1 3.2 3.216z" /></g></symbol><clipPath id="ic-bus_a"><path data-name="Прямоугольник 93" d="M0 0h31.313v28.96H0z" /></clipPath><symbol viewBox="0 0 31.349 22.92" id="ic-car"><defs></defs><g data-name="Сгруппировать 1" clip-path="url(#ic-car_a)"><path data-name="Контур 506" d="M31.349 6.112a1.64 1.64 0 0 0-1.456-1.63l-1.715-.193a.859.859 0 0 0-.955.853v1.413a5.2 5.2 0 0 0-.849-.225l-.025-.048-1.7-3.237A5.2 5.2 0 0 0 20.491.281l-1.3-.112a34.632 34.632 0 0 0-6.829 0l-1.3.112a5.2 5.2 0 0 0-4.15 2.764l-1.7 3.237-.025.048a5.2 5.2 0 0 0-1.061.309v-1.5a.859.859 0 0 0-.955-.853l-1.715.193A1.64 1.64 0 0 0 0 6.112a.884.884 0 0 0 .834.882l2.376.132a5.33 5.33 0 0 0-.325.24A6.331 6.331 0 0 0 .529 12.3v8.046a2.58 2.58 0 0 0 5.159 0v-.756h20.184v.756a2.58 2.58 0 0 0 5.159 0V12.3a6.33 6.33 0 0 0-2.357-4.928 4.918 4.918 0 0 0-.342-.251L30.514 7a.884.884 0 0 0 .835-.882M7.8 3.509a4.182 4.182 0 0 1 3.359-2.233l1.3-.112a33.8 33.8 0 0 1 6.657 0l1.3.112a4.182 4.182 0 0 1 3.359 2.233L25.2 6.225l-6.053-.3a59.039 59.039 0 0 0-6.711 0l-6.053.3zm.448 8.784a1.166 1.166 0 0 1-1.262.974l-3.694-.353a1.166 1.166 0 0 1-1.048-1.292l.058-.515a1.166 1.166 0 0 1 1.43-1l3.636.869a1.166 1.166 0 0 1 .88 1.321m11.188 2.2h-7.355a2.259 2.259 0 0 1-2.259-2.259 1.235 1.235 0 0 1 1.235-1.235h9.4a1.235 1.235 0 0 1 1.235 1.235 2.259 2.259 0 0 1-2.259 2.259m9.781-3.381l.058.515a1.166 1.166 0 0 1-1.048 1.292l-3.694.353a1.166 1.166 0 0 1-.382-2.295l3.636-.869a1.166 1.166 0 0 1 1.43 1" /></g></symbol><clipPath id="ic-car_a"><path data-name="Прямоугольник 92" d="M0 0h31.349v22.92H0z" /></clipPath><symbol viewBox="0 0 30 30" id="ic-cut"><defs></defs><g data-name="Сгруппировать 73"><g data-name="Сгруппировать 72" clip-path="url(#ic-cut_a)"><path data-name="Контур 615" d="M7.219 23.225a2.4 2.4 0 1 0 .906 3.271 2.407 2.407 0 0 0-.906-3.271m-.14 2.679a1.2 1.2 0 1 1-1.039-1.788 1.2 1.2 0 0 1 1.039 1.788" /><path data-name="Контур 616" d="M29.525 7.645l-1.161-.891 1.161-.891a1.2 1.2 0 0 0-.731-2.15H23.33A10.393 10.393 0 0 0 22.175.6a1.2 1.2 0 0 0-2.085.009l-1.759 3.1h-6.668L9.9.606A1.2 1.2 0 0 0 7.814.6a10.346 10.346 0 0 0-1.165 3.11H1.2a1.2 1.2 0 0 0-.731 2.152l1.162.892-1.161.891a1.2 1.2 0 0 0 .73 2.15h6.047c.437 1.048.583 1.136 3.766 6.792l-2.655 4.671a4.676 4.676 0 1 0-1.079 8.565c3-.829 3.233-3.549 6.606-8.864.2-.361.889 0 1.768-.182a.45.45 0 0 1 .454.192l3.772 6.639a.1.1 0 0 1 .007.014 4.676 4.676 0 1 0 8.132-4.617 4.68 4.68 0 0 0-6.372-1.758l-.016.009-2.656-4.676c3.169-5.633 3.285-5.634 3.761-6.785h6.059a1.2 1.2 0 0 0 .731-2.15M21.135 1.2a9.162 9.162 0 0 1 .978 2.514h-2.4zM1.2 8.6l1.781-1.371a.6.6 0 0 0 0-.952L1.2 4.911h5.277a10.644 10.644 0 0 0 .355 3.683zm7.859 18.428a3.476 3.476 0 1 1-.867-4.439.6.6 0 0 0 .891-.176L11.7 17.8a12.97 12.97 0 0 0 1.387 2.224c-.129.134-4 6.941-4.031 7M21.8 22.588a3.476 3.476 0 1 1 1.227 6.079c-2.3-.634-2.424-2.717-5.877-8.289-.686-1.214-1.841-.592-2.579-.821-1.1-.343-5.919-9.41-6.342-10.541 0-.011 0-.021-.007-.031A9.241 9.241 0 0 1 8.855 1.2c3.684 6.487 12.008 21.132 12.055 21.213a.6.6 0 0 0 .892.176m-3.517-7.222l-2.6-4.571.566-1h5.178c-.24.5-.208.393-3.146 5.571M14.44 8.595l-2.1-3.683h16.45l-1.777 1.365a.6.6 0 0 0 0 .952l1.779 1.366z" /><path data-name="Контур 617" d="M23.956 27.714a2.4 2.4 0 1 0-2.086-1.217 2.4 2.4 0 0 0 2.088 1.217m-1.159-2.72a1.2 1.2 0 1 1 1.745 1.359 1.186 1.186 0 0 1-.909.113 1.2 1.2 0 0 1-.839-1.475" /><path data-name="Контур 618" d="M13.921 15.531a1.5 1.5 0 1 0 2.134-.017 1.54 1.54 0 0 0-2.134.017" /></g></g></symbol><clipPath id="ic-cut_a"><path data-name="Прямоугольник 126" d="M0 0h30v30H0z" /></clipPath><symbol viewBox="0 0 42.302 42.302" id="ic-facebook"><path data-name="Контур 464" d="M21.151 0A21.151 21.151 0 1 0 42.3 21.151 21.148 21.148 0 0 0 21.151 0zM27.6 13.295h-2.219c-1.813 0-2.216.806-2.216 2.216v2.82H27.4l-.6 4.432h-3.836v10.273h-4.23V22.561h-3.828v-4.23h3.827V14.3a5.35 5.35 0 0 1 5.64-4.835 19.544 19.544 0 0 1 3.424.2v3.626z" /></symbol><symbol viewBox="0 0 36.286 35.238" id="ic-finance"><defs></defs><g data-name="Сгруппировать 60" clip-path="url(#ic-finance_a)"><path data-name="Контур 577" d="M9.93 8.157l-7.324.857a.619.619 0 0 0-.544.686l.979 8.357a.623.623 0 0 0-.121.128l-1.764 2.814a1.033 1.033 0 0 1-.181.2 3.078 3.078 0 0 0-.765 3.363L1.539 29.5v5a.619.619 0 0 0 1.237 0v-4.765a.6.6 0 0 0 .016-.338l-1.4-5.19a.618.618 0 0 0-.024-.071 1.822 1.822 0 0 1 .432-2.017 2.217 2.217 0 0 0 .4-.462l1.069-1.7.315 2.688a.743.743 0 0 0 1.466.061l.769-3.847a.621.621 0 0 0 .012-.121.491.491 0 0 1 .49-.49.483.483 0 0 1 .49.477v4.2a.616.616 0 0 0 .074.292l.027.05.07.135a.62.62 0 0 0 .148.187c.463.4.721 2.342.682 3.013a4.969 4.969 0 0 1-.716 2.43.63.63 0 0 0-.1.335v5.248a.619.619 0 0 0 1.237 0v-5.067a6.284 6.284 0 0 0 .812-2.868 8.965 8.965 0 0 0-.545-3.192l3.182-.373a.619.619 0 0 0 .544-.685l-1.61-13.727a.613.613 0 0 0-.676-.544h-.01M8.044 22.295v-3.552a1.727 1.727 0 0 0-3.453-.068l-.145.725-1.079-9.225 6.093-.718 1.463 12.5z" /><path data-name="Контур 578" d="M35.214 13.237a.893.893 0 0 1-.172-.162l-1.813-2.46a.6.6 0 0 0-.111-.1l.339-7.709a.619.619 0 0 0-.592-.645l-6.773-.3a.616.616 0 0 0-.644.587l-.558 12.7a.619.619 0 0 0 .592.645l2.874.126a8.683 8.683 0 0 0-.263 2.926 5.866 5.866 0 0 0 .923 2.567l.027 12.969a.618.618 0 1 0 1.236 0l-.027-13.162a.624.624 0 0 0-.12-.37 4.548 4.548 0 0 1-.812-2.157 5.381 5.381 0 0 1 .41-2.768.627.627 0 0 0 .135-.2l.055-.131a.141.141 0 0 0 0-.017c0-.009.013-.017.018-.026a.619.619 0 0 0 .052-.3l-.279-3.84a.4.4 0 0 1 .663-.334.4.4 0 0 1 .138.275.58.58 0 0 0 .02.121l.963 3.479a.732.732 0 0 0 1.438-.163l.1-2.347 1.008 1.37a2.078 2.078 0 0 0 .413.407 1.624 1.624 0 0 1 .511 1.766.624.624 0 0 0-.019.073l-.932 4.854a.594.594 0 0 0 .034.321l.855 13.312a.62.62 0 0 0 .618.579h.04a.618.618 0 0 0 .577-.657v-.007l-.867-13.528.885-4.61a2.878 2.878 0 0 0-.944-3.087m-3.474-2.044a1.638 1.638 0 1 0-3.262.306l.233 3.2-2.556-.112.5-11.465 5.539.242-.359 8.176z" /><path data-name="Контур 579" d="M24.813 3.731a.617.617 0 0 0-.547-.68h-.01l-1.707-.161.024-2.265A.618.618 0 0 0 21.965 0h-8.47a.618.618 0 0 0-.619.618v11.9c-.03.042-.06.085-.086.129a1.562 1.562 0 0 0 .086 1.685v.031a1.512 1.512 0 0 0-.559.665 1.571 1.571 0 0 0 .327 1.72 1.617 1.617 0 0 0-.461.746 1.57 1.57 0 0 0 .393 1.48 1.565 1.565 0 0 0 .833 2.648l1.177.212v.011a2.036 2.036 0 0 0 .938 2.181v10.318a.619.619 0 1 0 1.237.039V23.612a.62.62 0 0 0-.444-.593c-.479-.142-.548-.363-.5-1.01a1.566 1.566 0 0 0 1.191-2.457 1.492 1.492 0 0 0-.106-.124 1.569 1.569 0 0 0 .32-.6v-.008a1.584 1.584 0 0 0 .011-.694 1.594 1.594 0 0 0 .593-.692 1.547 1.547 0 0 0 .06-1.055l.135.091 1.353.9a4.175 4.175 0 0 0-.8 2.512 4.223 4.223 0 0 0 .639 2.287l.019.473a.618.618 0 0 0 .618.595h.025a.619.619 0 0 0 .594-.642l-.025-.651a.617.617 0 0 0-.121-.341 2.965 2.965 0 0 1-.512-1.718 2.732 2.732 0 0 1 .75-1.989.618.618 0 0 0 .2-.442l.006-.3a.619.619 0 0 0-.274-.527l-1.782-1.19-.752-.5a.59.59 0 1 1 .589-1.022l3.766 2.175a3.765 3.765 0 0 1 .875.927 9.48 9.48 0 0 1 .176 3.234c-.015.258-.03.495-.036.7-.016.549-.225 1.981-.984 2.025a.619.619 0 0 0-.582.621l.056 10.963a.619.619 0 0 0 .619.616.619.619 0 0 0 .615-.622l-.054-10.47c1.088-.434 1.529-1.866 1.565-3.1.005-.2.019-.423.034-.665a10.342 10.342 0 0 0-.242-3.708 3.3 3.3 0 0 0-.84-1.112.624.624 0 0 0 .076-.233zm-10.7-2.495h7.219l-.016 1.536-4.454-.423a.614.614 0 0 0-.673.548l-1.261 11.559-.555-.242a1.491 1.491 0 0 0-.263-.083zm2.58 15.695a.339.339 0 0 1-.318.205.3.3 0 0 1-.117-.03l-2.629-1.148a.336.336 0 0 1-.174-.442.323.323 0 0 1 .236-.187.2.2 0 0 1 .068-.008.337.337 0 0 1 .126.028l2.629 1.151a.332.332 0 0 1 .176.434m-.674 1.4a.341.341 0 0 1 0 .178.336.336 0 0 1-.322.245.3.3 0 0 1-.083-.014l-2-.523a.333.333 0 0 1-.242-.394.349.349 0 0 1 .331-.258.414.414 0 0 1 .077.008l1.122.3.853.369a1.458 1.458 0 0 0 .26.09m-.113 2.39a.327.327 0 0 1-.247.054l-2.03-.366a.331.331 0 1 1 .117-.651l2.029.363a.331.331 0 0 1 .132.6zm6.5-6.008l-3.234-1.88a1.827 1.827 0 0 0-2.679 2.054 1.891 1.891 0 0 0 .108.289l-.508-.222a.588.588 0 0 0 .051-.162L17.35 3.64l6.167.583z" /></g></symbol><clipPath id="ic-finance_a"><path data-name="Прямоугольник 113" d="M0 0h36.286v35.238H0z" /></clipPath><symbol viewBox="0 0 36 35" id="ic-find"><defs></defs><g data-name="Сгруппировать 69"><g data-name="Сгруппировать 68" transform="translate(0 -.265)" clip-path="url(#ic-find_a)"><path data-name="Контур 590" d="M8.92 2.56a.595.595 0 1 1-.595.595.595.595 0 0 1 .595-.595" /><path data-name="Контур 591" d="M11.299 2.56a.595.595 0 1 1-.595.595.595.595 0 0 1 .595-.595" /><path data-name="Контур 592" d="M13.677 2.56a.595.595 0 1 1-.595.595.595.595 0 0 1 .595-.595" /><path data-name="Контур 593" d="M3.568 26.346h11.3v-1.189h-11.3a2.379 2.379 0 0 1-2.379-2.375V9.696H22.6v4.757h1.189V9.102a.594.594 0 0 0-.595-.595H4.162V6.723H25.57v7.73h1.189V6.128a.594.594 0 0 0-.595-.595H7.136V1.966a.6.6 0 0 1 .595-.595h6.719a.6.6 0 0 1 .371.13l2.647 2.118a.593.593 0 0 0 .371.13h10.7v12.488h1.189V3.155a.594.594 0 0 0-.595-.595H18.048L15.564.573A1.78 1.78 0 0 0 14.45.182H7.73a1.784 1.784 0 0 0-1.784 1.784v3.568H3.568a.6.6 0 0 0-.595.595v2.378H.595A.6.6 0 0 0 0 9.102v13.68a3.571 3.571 0 0 0 3.568 3.568" /><path data-name="Контур 594" d="M30.396 27.357a7.76 7.76 0 1 0-2.627 2.628l4.738 4.739a1.857 1.857 0 1 0 2.627-2.625zm-2.109.747c-.1.1-.209.2-.32.291-.077.065-.161.124-.241.185a6.569 6.569 0 1 1 1.262-1.261c-.059.078-.119.159-.178.234-.1.114-.2.223-.3.331-.072.077-.145.15-.222.222zm5.535 5.973a.674.674 0 0 1-.472-.2l-4.593-4.592a7.87 7.87 0 0 0 .476-.437l.024-.023q.231-.232.443-.483l4.596 4.596a.667.667 0 0 1-.471 1.138" /><path data-name="Контур 595" d="M23.786 17.666a5.711 5.711 0 1 0 5.711 5.711 5.711 5.711 0 0 0-5.711-5.711m0 10.153a4.442 4.442 0 1 1 4.442-4.442 4.442 4.442 0 0 1-4.442 4.442" /><path data-name="Контур 596" d="M20.812 23.373h1.189a1.784 1.784 0 0 1 1.784-1.784V20.4a2.977 2.977 0 0 0-2.973 2.973" /><path data-name="Контур 597" d="M21.994 23.376a.591.591 0 1 0-.591.591.591.591 0 0 0 .591-.591" /><path data-name="Контур 598" d="M24.349 20.991a.591.591 0 1 0-.591.592.591.591 0 0 0 .591-.592" /><path data-name="Контур 599" d="M2.974 10.885a.595.595 0 1 1-.595.595.595.595 0 0 1 .595-.595" /><path data-name="Прямоугольник 123" d="M2 13.265h2v4H2z" /><path data-name="Контур 600" d="M23.785 14.426a.595.595 0 1 0-.595.595.594.594 0 0 0 .595-.595" /><path data-name="Контур 601" d="M15.394 25.752a.595.595 0 1 0-.595.595.594.594 0 0 0 .595-.595" /><path data-name="Контур 602" d="M2.379 16.832a.595.595 0 1 0 .595-.595.595.595 0 0 0-.595.595" /><path data-name="Контур 603" d="M2.379 13.264a.595.595 0 1 0 .595-.595.595.595 0 0 0-.595.595" /><path data-name="Контур 604" d="M26.757 14.426a.595.595 0 1 0-.595.595.594.594 0 0 0 .595-.595" /><path data-name="Контур 605" d="M29.732 16.224a.595.595 0 1 0-.595.595.594.594 0 0 0 .595-.595" /></g></g></symbol><clipPath id="ic-find_a"><path data-name="Прямоугольник 124" transform="translate(0 .265)" d="M0 0h36v35H0z" /></clipPath><symbol viewBox="0 0 36 35" id="ic-group"><defs></defs><g data-name="Сгруппировать 52"><g data-name="Сгруппировать 51" transform="translate(0 .1)" clip-path="url(#ic-group_a)"><path data-name="Контур 563" d="M14.117 30.35a.759.759 0 0 1-.759-.759v-6.07a2.276 2.276 0 0 0-2.276-2.276h-1.2l-2.057 2.054a.758.758 0 0 1-1.073 0l-2.051-2.054h-1.2a2.276 2.276 0 0 0-2.276 2.276v6.07a.759.759 0 1 1-1.517 0v-6.07a3.8 3.8 0 0 1 3.787-3.793h1.517a.757.757 0 0 1 .536.222l1.74 1.74 1.74-1.74a.757.757 0 0 1 .537-.222h1.517a3.8 3.8 0 0 1 3.794 3.794v6.07a.759.759 0 0 1-.759.759" /><path data-name="Контур 564" d="M7.289 18.21a3.794 3.794 0 1 1 3.794-3.794 3.794 3.794 0 0 1-3.794 3.794m0-6.07a2.276 2.276 0 1 0 2.276 2.276 2.276 2.276 0 0 0-2.276-2.276" /><path data-name="Контур 565" d="M3.495 34.902a.759.759 0 0 1-.759-.758v-9.1a.759.759 0 1 1 1.517 0v9.1a.759.759 0 0 1-.759.759" /><path data-name="Контур 566" d="M11.083 34.902a.759.759 0 0 1-.759-.758v-9.1a.759.759 0 1 1 1.517 0v9.1a.759.759 0 0 1-.759.759" /><path data-name="Контур 567" d="M35.362 30.35a.758.758 0 0 1-.759-.759v-6.07a2.276 2.276 0 0 0-2.276-2.276h-1.2l-2.054 2.054a.758.758 0 0 1-1.073 0l-2.054-2.054h-1.2a2.276 2.276 0 0 0-2.276 2.276v6.07a.759.759 0 1 1-1.517 0v-6.07a3.8 3.8 0 0 1 3.787-3.793h1.518a.755.755 0 0 1 .536.222l1.74 1.74 1.74-1.74a.755.755 0 0 1 .536-.222h1.517a3.8 3.8 0 0 1 3.794 3.794v6.07a.758.758 0 0 1-.759.759" /><path data-name="Контур 568" d="M28.534 18.21a3.794 3.794 0 1 1 3.794-3.794 3.794 3.794 0 0 1-3.794 3.794m0-6.07a2.276 2.276 0 1 0 2.276 2.276 2.276 2.276 0 0 0-2.276-2.276" /><path data-name="Контур 569" d="M24.74 34.902a.758.758 0 0 1-.759-.758v-9.1a.759.759 0 1 1 1.517 0v9.1a.758.758 0 0 1-.759.759" /><path data-name="Контур 570" d="M32.328 34.902a.758.758 0 0 1-.759-.758v-9.1a.759.759 0 0 1 1.518 0v9.1a.758.758 0 0 1-.759.759" /><path data-name="Контур 571" d="M17.911 20.487a.757.757 0 0 1-.536-.222l-2.054-2.054h-1.962a.759.759 0 1 1 0-1.517h2.276a.757.757 0 0 1 .536.222l1.74 1.74 1.74-1.74a.755.755 0 0 1 .536-.223h2.276a.759.759 0 0 1 0 1.517H20.5l-2.054 2.054a.757.757 0 0 1-.536.222" /><path data-name="Контур 572" d="M35.362 15.175a.759.759 0 0 1-.759-.759V3.794a2.276 2.276 0 0 0-2.276-2.276H3.495a2.276 2.276 0 0 0-2.277 2.276v10.622a.759.759 0 0 1-1.517 0V3.794A3.8 3.8 0 0 1 3.495 0h28.832a3.8 3.8 0 0 1 3.794 3.794v10.622a.759.759 0 0 1-.759.759" /><path data-name="Контур 573" d="M26.257 6.07H9.565a.759.759 0 0 1 0-1.517h16.692a.759.759 0 0 1 0 1.517" /><path data-name="Контур 574" d="M23.222 9.863H12.6a.759.759 0 0 1 0-1.517h10.622a.759.759 0 1 1 0 1.517" /><path data-name="Контур 575" d="M16.394 13.657h-1.517a.759.759 0 0 1 0-1.517h1.518a.759.759 0 0 1 0 1.517" /><path data-name="Контур 576" d="M20.946 13.657h-1.517a.759.759 0 0 1 0-1.517h1.517a.759.759 0 1 1 0 1.517" /></g></g></symbol><clipPath id="ic-group_a"><path data-name="Прямоугольник 112" transform="translate(0 -.1)" d="M0 0h36v35H0z" /></clipPath><symbol viewBox="0 0 32 32" id="ic-learn"><defs></defs><g data-name="Сгруппировать 70" clip-path="url(#ic-learn_a)"><path data-name="Контур 606" d="M29.333 0H2.667A2.67 2.67 0 0 0 0 2.667v26.666A2.67 2.67 0 0 0 2.667 32h26.666A2.67 2.67 0 0 0 32 29.333V2.667A2.67 2.67 0 0 0 29.333 0M2.667 1.067h26.666a1.6 1.6 0 0 1 1.6 1.6v1.6H1.067v-1.6a1.6 1.6 0 0 1 1.6-1.6m26.666 29.866H2.667a1.6 1.6 0 0 1-1.6-1.6v-24h29.866v24a1.6 1.6 0 0 1-1.6 1.6" /><path data-name="Контур 607" d="M3.531 3.158a.506.506 0 0 0 .405 0 .621.621 0 0 0 .176-.112.529.529 0 0 0 .112-.581.565.565 0 0 0-.112-.176.621.621 0 0 0-.176-.112.509.509 0 0 0-.309-.032.339.339 0 0 0-.1.032.29.29 0 0 0-.091.048.5.5 0 0 0-.085.064.556.556 0 0 0-.112.176.528.528 0 0 0 .112.581.621.621 0 0 0 .176.112" /><path data-name="Контур 608" d="M5.664 3.158a.5.5 0 0 0 .405 0 .621.621 0 0 0 .176-.112.53.53 0 0 0 .155-.379.451.451 0 0 0-.043-.2.621.621 0 0 0-.112-.176.914.914 0 0 0-.08-.064.4.4 0 0 0-.1-.048.339.339 0 0 0-.1-.032.509.509 0 0 0-.309.032.621.621 0 0 0-.176.112.556.556 0 0 0-.112.176.528.528 0 0 0 .112.581.621.621 0 0 0 .176.112" /><path data-name="Контур 609" d="M7.622 3.046a.621.621 0 0 0 .176.112.5.5 0 0 0 .405 0 .621.621 0 0 0 .176-.112.528.528 0 0 0 .112-.581.556.556 0 0 0-.112-.176.621.621 0 0 0-.176-.112.509.509 0 0 0-.309-.032.339.339 0 0 0-.1.032.3.3 0 0 0-.091.048.524.524 0 0 0-.085.064.556.556 0 0 0-.112.176.529.529 0 0 0-.043.2.451.451 0 0 0 .043.2.621.621 0 0 0 .112.176" /><path data-name="Контур 610" d="M16.533 6.933h-1.066A2.67 2.67 0 0 0 12.8 9.6v12.8a.535.535 0 0 0 .056.238l1.544 3.088v2.007a1.6 1.6 0 0 0 3.2 0v-2.007l1.547-3.087a.528.528 0 0 0 .053-.238v-12.8a2.67 2.67 0 0 0-2.667-2.668m.2 18.133h-1.47L14.07 22.68l1.93-.772 1.93.772zm1.4-11.733h-4.266v-1.067h4.267zM13.866 14.4h1.6v6.572l-1.6.64zm2.667 6.572V14.4h1.6v7.212zM13.867 9.6a1.6 1.6 0 0 1 1.6-1.6h1.067a1.6 1.6 0 0 1 1.6 1.6v1.6h-4.267zm2.666 18.133a.533.533 0 0 1-1.067 0v-1.6h1.067z" /><path data-name="Контур 611" d="M11.346 13.207a6.4 6.4 0 0 0 0 8.785l.775-.732a5.333 5.333 0 0 1 0-7.321z" /><path data-name="Контур 612" d="M20.654 21.992a6.4 6.4 0 0 0 0-8.785l-.775.732a5.333 5.333 0 0 1 0 7.321z" /><path data-name="Контур 613" d="M26.733 15.47l-2.566-.32a8.485 8.485 0 0 0-.658-1.595l1.588-2.041a.534.534 0 0 0-.044-.705L22.79 8.546a.533.533 0 0 0-.7-.044l-2.323 1.807.655.842 1.951-1.518 1.6 1.6-1.517 1.947a.534.534 0 0 0-.037.6 7.379 7.379 0 0 1 .821 1.981.532.532 0 0 0 .451.4l2.453.307v2.258l-2.453.307a.533.533 0 0 0-.451.4 7.389 7.389 0 0 1-.831 1.982.533.533 0 0 0 .037.6l1.517 1.951-1.6 1.6-1.951-1.518-.655.842 2.323 1.807a.534.534 0 0 0 .7-.044l2.263-2.263a.534.534 0 0 0 .044-.705l-1.578-2.043a8.456 8.456 0 0 0 .66-1.592l2.566-.32a.533.533 0 0 0 .467-.53V16a.533.533 0 0 0-.467-.529" /><path data-name="Контур 614" d="M9.916 8.505a.533.533 0 0 0-.7.044l-2.263 2.263a.534.534 0 0 0-.044.705l1.584 2.039a8.521 8.521 0 0 0-.66 1.592l-2.566.32a.533.533 0 0 0-.467.53v3.2a.533.533 0 0 0 .467.529l2.566.32a8.491 8.491 0 0 0 .66 1.592l-1.588 2.042a.533.533 0 0 0 .044.7l2.263 2.263a.533.533 0 0 0 .7.044l2.323-1.807-.655-.841-1.951 1.518-1.6-1.6 1.517-1.951a.531.531 0 0 0 .037-.6 7.424 7.424 0 0 1-.821-1.981.533.533 0 0 0-.451-.4l-2.453-.307v-2.248l2.453-.307a.532.532 0 0 0 .451-.4 7.414 7.414 0 0 1 .821-1.981.532.532 0 0 0-.037-.6l-1.517-1.951 1.6-1.6 1.951 1.518.655-.842z" /></g></symbol><clipPath id="ic-learn_a"><path data-name="Прямоугольник 125" d="M0 0h32v32H0z" /></clipPath><symbol viewBox="0 0 21.041 21.019" id="ic-phone"><path data-name="Контур 436" d="M19.01 20.041a2.157 2.157 0 0 1-1.927.975 14.314 14.314 0 0 1-2.459-.332A20.278 20.278 0 0 1 5.717 15.3 20.278 20.278 0 0 1 .336 6.395a16.578 16.578 0 0 1-.332-2.437 2.125 2.125 0 0 1 .953-1.905L3.681.237a1.408 1.408 0 0 1 2.036.531l2.215 4.275a1.433 1.433 0 0 1-.377 1.772L5.564 8.368a15.5 15.5 0 0 0 3.013 4.12 15.859 15.859 0 0 0 4.054 2.968l1.573-2.016a1.406 1.406 0 0 1 1.772-.377l4.3 2.215a1.408 1.408 0 0 1 .532 2.038z" /></symbol><symbol viewBox="0 0 36 36" id="ic-setting"><defs></defs><g data-name="Сгруппировать 66" clip-path="url(#ic-setting_a)"><path data-name="Контур 585" d="M33.406 33.233l-3.938-1.687a.555.555 0 0 0-.218-.046H3.375a.562.562 0 0 0-.563.563v3.374a.562.562 0 0 0 .563.563H29.25a.546.546 0 0 0 .219-.046l3.938-1.687a.562.562 0 0 0 0-1.034M6.75 34.875H3.937v-2.249H6.75zm21.938 0H7.875v-.562h20.812zm0-1.687H7.875v-.562h20.812zm1.124 1.395V32.9l1.946.854z" /><path data-name="Прямоугольник 116" d="M21 7h6v1h-6z" /><path data-name="Прямоугольник 117" d="M28 7h1v1h-1z" /><path data-name="Прямоугольник 118" d="M21 10h5v1h-5z" /><path data-name="Контур 586" d="M9 19.687H7.875v5.625a.562.562 0 0 0 .563.563h7.875V24.75H9z" /><path data-name="Прямоугольник 119" d="M10 23h1v1h-1z" /><path data-name="Прямоугольник 120" d="M10 20h1v1h-1z" /><path data-name="Прямоугольник 121" d="M12 23h2v1h-2z" /><path data-name="Контур 587" d="M32.625 0a.562.562 0 0 0-.562.563v2.812H3.938V.563A.563.563 0 0 0 3.375 0C3.341 0 0 .051 0 4.5v21.938c0 2.143 2.138 3.139 3.263 3.375h29.474C33.862 29.587 36 28.592 36 26.438V4.5C36 .051 32.659 0 32.625 0m-31.5 4.5c0-2.3 1.013-3.032 1.688-3.262v21.938a4.935 4.935 0 0 0-1.687.916zm31.438 24.188H3.437c-.337-.078-2.312-.624-2.312-2.25 0-1.755 2.25-2.25 2.362-2.25a.562.562 0 0 0 .45-.562V4.5h28.126v19.125a.562.562 0 0 0 .45.563s2.362.5 2.362 2.25c0 1.637-1.963 2.166-2.312 2.25m2.312-4.588a4.965 4.965 0 0 0-1.687-.917V1.238c.669.236 1.688.973 1.688 3.262z" /><path data-name="Контур 588" d="M21.375 11.812a6.713 6.713 0 0 0-2.25.394V7.875a.562.562 0 0 0-.562-.563H8.438a.563.563 0 0 0-.562.563V18a.563.563 0 0 0 .563.563h6.186a6.75 6.75 0 1 0 6.75-6.751M9 17.437v-9h9v4.286a6.751 6.751 0 0 0-3.274 4.714zm9-3.375v3.375h-2.138A5.627 5.627 0 0 1 18 14.062m3.375 10.125a5.625 5.625 0 0 1-5.625-5.625h2.813a.562.562 0 0 0 .563-.562v-4.588a5.625 5.625 0 1 1 2.249 10.775" /><path data-name="Контур 589" d="M14.062 11.25h-1.125v1.125h-1.125V13.5h1.125v1.125h1.125V13.5h1.125v-1.125h-1.125z" /></g></symbol><clipPath id="ic-setting_a"><path data-name="Прямоугольник 122" d="M0 0h36v36H0z" /></clipPath><symbol viewBox="0 0 31.841 33.864" id="ic-signature"><defs></defs><g data-name="Сгруппировать 62" clip-path="url(#ic-signature_a)"><path data-name="Контур 580" d="M6.937 27.642a4.6 4.6 0 0 0 3.03-1.349l12.315-12.316a.846.846 0 0 0 1.069-.1l2.886-2.886.263 1.18-6.875 6.875a.845.845 0 0 0 0 1.2.833.833 0 0 0 .6.246.869.869 0 0 0 .6-.246l7.206-7.206a.867.867 0 0 0 .229-.789l-.6-2.682.552-.552a5.159 5.159 0 0 0 0-7.291L28 1.509a5.159 5.159 0 0 0-7.291 0l-4.86 4.863a.84.84 0 0 0-.246.6.821.821 0 0 0 .144.467L3.406 19.766a4.587 4.587 0 0 0-1.341 2.971L1.827 26.5.248 28.084a.845.845 0 0 0 0 1.2.833.833 0 0 0 .6.246.869.869 0 0 0 .6-.246L2.9 27.838zM21.909 2.705a3.458 3.458 0 0 1 4.889 0l.212.212a3.458 3.458 0 0 1 0 4.889l-4.261 4.261-1.672-1.667-3.429-3.434zM3.754 22.855a2.932 2.932 0 0 1 .846-1.884L16.927 8.647 19 10.718l2.071 2.071L8.761 25.1a2.9 2.9 0 0 1-1.918.849l-3.3.17z" /><path data-name="Контур 581" d="M31.712 19.46a.853.853 0 1 0-1.681.289c.721 4.193-2.563 6.493-5.441 7.681a18.111 18.111 0 0 1-2.232.755 4.261 4.261 0 0 0-.569-.518 11.6 11.6 0 0 0-5.627-2.309 6.023 6.023 0 0 0-4.38.891 2.188 2.188 0 0 0-.611 2.792c.628 1.29 3 1.6 4.88 1.638a23.979 23.979 0 0 0 4.414-.356 18.382 18.382 0 0 1-6.188 1.579 28.111 28.111 0 0 1-10.245-.4.848.848 0 1 0-.5 1.621 22.41 22.41 0 0 0 6.23.738 40.082 40.082 0 0 0 4.711-.28c2.657-.314 7.257-1.146 8.276-3.123a1.768 1.768 0 0 0 .2-.7l.764-.229a13.985 13.985 0 0 0 6.026-3.514 7.275 7.275 0 0 0 1.969-6.561m-14.82 9.532c-2.708.059-4-.441-4.176-.687a.52.52 0 0 1 .161-.738c.959-.781 4.252-1.036 7.393 1.078a21.82 21.82 0 0 1-3.378.348" /></g></symbol><clipPath id="ic-signature_a"><path data-name="Прямоугольник 114" d="M0 0h31.841v33.864H0z" /></clipPath><symbol viewBox="0 0 25.513 31.349" id="ic-truck"><defs></defs><g data-name="Сгруппировать 8" clip-path="url(#ic-truck_a)"><path data-name="Контур 508" d="M23.126 27.147l-.007-6.272c0-1.493-1.076-9.336-1.146-9.687a1.525 1.525 0 0 0-1.5-1.225H5.036a1.525 1.525 0 0 0-1.5 1.225c-1.01 7.541-1.144 7.5-1.146 9.687L2.388 27v3.663a.69.69 0 0 0 .69.69h1.988a.69.69 0 0 0 .69-.69v-2h14v2a.69.69 0 0 0 .69.69h1.99a.69.69 0 0 0 .69-.69zM5.215 25.7a1.407 1.407 0 1 1 1.407-1.407A1.407 1.407 0 0 1 5.215 25.7m12.559-.959a1.018 1.018 0 0 1-1.017 1.018h-8a1.017 1.017 0 0 1-1.017-1.018v-.777a1.017 1.017 0 0 1 1.017-1.018h8a1.018 1.018 0 0 1 1.017 1.018zm2.526.959a1.407 1.407 0 1 1 1.4-1.408 1.407 1.407 0 0 1-1.4 1.408m.685-7.707H4.53a.724.724 0 0 1-.71-.867l.593-4.705a.725.725 0 0 1 .71-.582h15.266a.725.725 0 0 1 .711.582l.593 4.705a.724.724 0 0 1-.71.867M23.444 0H2.069A2.069 2.069 0 0 0 0 2.068v19.915a1.342 1.342 0 0 0 1.342 1.342v-2.45a26.483 26.483 0 0 1 .445-4.7c.167-1.172.4-2.781.71-5.124l.011-.067a2.582 2.582 0 0 1 2.528-2.071h15.441A2.582 2.582 0 0 1 23 10.982c.07.353 1.165 8.286 1.167 9.892v2.45a1.342 1.342 0 0 0 1.342-1.342V2.068A2.069 2.069 0 0 0 23.444 0" /></g></symbol><clipPath id="ic-truck_a"><path data-name="Прямоугольник 94" d="M0 0h25.513v31.349H0z" /></clipPath><symbol viewBox="0 0 132 108" id="ic-twitter"><path d="M132 12.7c-4.9 2.2-10.1 3.6-15.6 4.3 5.6-3.4 9.9-8.7 11.9-15-5.2 3.1-11 5.4-17.2 6.6C106.2 3.3 99.2 0 91.4 0c-15 0-27.1 12.1-27.1 27.1 0 2.1.2 4.2.7 6.2C42.5 32.1 22.5 21.3 9.2 5c-2.3 4-3.7 8.7-3.7 13.6 0 9.4 4.8 17.7 12 22.5-4.4-.1-8.5-1.3-12.2-3.4v.3c0 13.1 9.3 24.1 21.7 26.6-2.3.6-4.7 1-7.1 1-1.7 0-3.4-.2-5.1-.5 3.4 10.8 13.4 18.6 25.3 18.8-9.3 7.3-20.9 11.6-33.6 11.6-2.2 0-4.3-.1-6.5-.4 12 7.7 26.2 12.2 41.5 12.2 49.8 0 77.1-41.3 77.1-77.1 0-1.2 0-2.3-.1-3.5 5.3-3.8 9.9-8.6 13.5-14z" fill-rule="evenodd" clip-rule="evenodd" /></symbol><symbol viewBox="0 0 37.659 34.737" id="ic-waze"><path data-name="Контур 469" d="M21.26 1.974c8.9 0 16.815 7.943 13.751 17.258a13.853 13.853 0 0 1-8.162 8.093 20.441 20.441 0 0 1-6.965.912h-1.692c-5.1 0-12.142-.622-16.216-6.028 5.583 0 4.482-6.24 5.2-9.94 1.1-5.639 6.68-9.431 12.092-10.162a14.879 14.879 0 0 1 1.99-.134m0-1.974a16.911 16.911 0 0 0-2.255.151 18 18 0 0 0-8.622 3.648 13.648 13.648 0 0 0-5.143 8.093 26 26 0 0 0-.333 2.944 13.3 13.3 0 0 1-.732 4.206c-.337.717-.841 1.194-2.2 1.194a1.974 1.974 0 0 0-1.577 3.163c4.6 6.108 12.36 6.814 17.793 6.814h1.694a21.924 21.924 0 0 0 7.655-1.036 16.521 16.521 0 0 0 5.6-3.554 14.318 14.318 0 0 0 3.743-5.773 14.5 14.5 0 0 0 .575-7.01 14.214 14.214 0 0 0-2.544-6 16.44 16.44 0 0 0-5.914-4.987 17.286 17.286 0 0 0-7.745-1.85" /><path data-name="Контур 470" d="M18.721 11.81a1.9 1.9 0 1 1-1.9-1.9 1.9 1.9 0 0 1 1.9 1.9" /><path data-name="Контур 471" d="M27.579 11.81a1.9 1.9 0 1 1-1.9-1.9 1.9 1.9 0 0 1 1.9 1.9" /><path data-name="Контур 472" d="M21.186 21.976c-3.213 0-6.107-2.106-6.638-4.863a.987.987 0 0 1 1.939-.373c.312 1.621 2.253 3.328 4.84 3.26 2.695-.071 4.475-1.682 4.841-3.237a.987.987 0 1 1 1.922.452 5.834 5.834 0 0 1-2.3 3.312 7.763 7.763 0 0 1-4.408 1.446h-.193" /><g data-name="Сгруппировать 19"><path data-name="Контур 473" d="M11.651 26.907a3.915 3.915 0 1 0 3.915 3.915 3.915 3.915 0 0 0-3.915-3.915zm0 5.207a1.292 1.292 0 1 1 1.292-1.292 1.292 1.292 0 0 1-1.292 1.292z" /></g><g data-name="Сгруппировать 20"><path data-name="Контур 474" d="M25.242 26.907a3.915 3.915 0 1 0 3.915 3.915 3.915 3.915 0 0 0-3.915-3.915zm0 5.207a1.292 1.292 0 1 1 1.292-1.292 1.292 1.292 0 0 1-1.292 1.292z" /></g></symbol><symbol viewBox="0 0 54.146 37.902" id="ic-youtube"><path data-name="Контур 465" d="M53.035 5.933a6.786 6.786 0 0 0-4.769-4.769C44.025 0 27.073 0 27.073 0S10.121 0 5.89 1.11a6.918 6.918 0 0 0-4.769 4.812C0 10.174 0 18.951 0 18.951s0 8.83 1.11 13.018a6.786 6.786 0 0 0 4.769 4.769c4.283 1.163 21.182 1.163 21.182 1.163s16.952 0 21.182-1.11a6.786 6.786 0 0 0 4.769-4.77C54.146 27.781 54.146 19 54.146 19s.042-8.826-1.111-13.067zm-31.356 21.14V10.84l14.1 8.122z" /></symbol></defs></svg>