<svg id="_ÎÓÈ_1" data-name="—ÎÓÈ_1" xmlns="http://www.w3.org/2000/svg" width="16.947" height="16.946" viewBox="0 0 16.947 16.946">
  <path id="Контур_619" data-name="Контур 619" d="M351.112,388.51a9.043,9.043,0,0,1,.473,2.971,8.526,8.526,0,0,1-.455,2.7H339l2.978-2.867-2.908-2.8Z" transform="translate(-334.637 -382.879)" fill="#fff"/>
  <path id="Контур_620" data-name="Контур 620" d="M242.343,610.39h12.13a7.552,7.552,0,0,1-.73,1.545,9.053,9.053,0,0,1-1.288,1.614,8.457,8.457,0,0,1-11.985,0,8.687,8.687,0,0,1-.661-.721Z" transform="translate(-237.98 -599.093)" fill="#007a3d"/>
  <path id="Контур_621" data-name="Контур 621" d="M255.79,173.631H243.749l-2.569-2.472c.192-.232.4-.46.617-.679a8.479,8.479,0,0,1,11.986,0,8.72,8.72,0,0,1,1.442,1.881A7.37,7.37,0,0,1,255.79,173.631Z" transform="translate(-239.316 -168)"/>
  <path id="Контур_622" data-name="Контур 622" d="M175.511,391.319l-2.978,2.867h-3.907c-.037-.105-.07-.211-.1-.318s-.062-.215-.09-.324a8.717,8.717,0,0,1-.188-1c0-.007,0-.014,0-.021-.012-.105-.026-.213-.033-.32,0-.009,0-.018,0-.026-.009-.1-.014-.2-.021-.3,0-.016,0-.031,0-.047-.005-.114-.009-.23-.01-.345,0-.308.012-.61.039-.905.005-.06.011-.12.019-.179,0-.028.005-.058.009-.086s.005-.053.009-.079c.007-.056.014-.114.023-.17s.018-.105.026-.158c.019-.113.039-.223.062-.334.012-.062.026-.121.039-.181a8.382,8.382,0,0,1,.25-.877H172.6Zm-4.086.42.652-.1-.55-.378.336-.575-.636.2-.239-.617-.249.617-.635-.2.335.574-.549.378.661.1-.053.661.49-.454.48.454Z" transform="translate(-168.17 -382.888)" fill="#ce1126"/>
  <path id="Контур_623" data-name="Контур 623" d="M190.718,294.163H186.76c.037-.109.077-.218.118-.327.021-.053.044-.107.067-.16s.044-.107.068-.16c.047-.105.1-.211.149-.315.021-.042.042-.085.065-.128.032-.062.065-.121.1-.181.047-.084.1-.167.146-.249s.1-.164.157-.244c.107-.162.221-.322.341-.478.06-.077.12-.155.181-.23Z" transform="translate(-186.285 -288.531)" fill="#ce1126"/>
  <path id="Контур_624" data-name="Контур 624" d="M189.936,610.39l-2.533,2.439c-.03-.035-.058-.07-.086-.105-.042-.053-.084-.106-.125-.158-.153-.206-.3-.415-.432-.63-.058-.093-.113-.188-.165-.283-.037-.065-.072-.13-.107-.2s-.065-.128-.1-.19q-.124-.25-.227-.508c-.021-.055-.044-.111-.063-.167s-.049-.134-.072-.2Z" transform="translate(-185.574 -599.092)" fill="#ce1126"/>
  <path id="Контур_625" data-name="Контур 625" d="M237.659,458.173l-.652.1.042.661-.48-.454-.491.454.053-.661-.661-.1.549-.378-.334-.575.635.2.25-.617.239.617.636-.2-.336.575Z" transform="translate(-233.751 -449.425)" fill="#fff"/>
  <path id="Контур_626" data-name="Контур 626" d="M231.54,695.55c.041.053.083.105.125.158C231.623,695.655,231.581,695.6,231.54,695.55Z" transform="translate(-229.922 -682.078)"/>
  <path id="Контур_627" data-name="Контур 627" d="M214.767,319.46c-.053.081-.106.162-.157.244C214.659,319.623,214.712,319.541,214.767,319.46Z" transform="translate(-213.424 -315.592)"/>
  <path id="Контур_628" data-name="Контур 628" d="M215.042,671.529a7.159,7.159,0,0,1-.432-.629C214.744,671.114,214.888,671.324,215.042,671.529Z" transform="translate(-213.424 -658.057)"/>
  <path id="Контур_629" data-name="Контур 629" d="M209.036,329c-.049.082-.1.165-.146.25C208.938,329.166,208.985,329.083,209.036,329Z" transform="translate(-207.85 -324.888)"/>
  <path id="Контур_630" data-name="Контур 630" d="M203.94,652.11c.035.067.07.132.107.2C204.008,652.242,203.973,652.175,203.94,652.11Z" transform="translate(-203.027 -639.747)"/>
  <path id="Контур_631" data-name="Контур 631" d="M202.515,345.89c-.023.042-.044.085-.065.128Z" transform="translate(-201.575 -341.347)"/>
  <path id="Контур_632" data-name="Контур 632" d="M200.22,644.67c.03.063.062.128.1.19Q200.265,644.765,200.22,644.67Z" transform="translate(-199.402 -632.497)"/>
  <path id="Контур_633" data-name="Контур 633" d="M194.028,363.17c-.026.053-.047.105-.068.16C193.981,363.275,194,363.223,194.028,363.17Z" transform="translate(-193.301 -358.186)"/>
  <path id="Контур_634" data-name="Контур 634" d="M188.86,618.24c.019.056.042.112.063.167C188.9,618.352,188.879,618.3,188.86,618.24Z" transform="translate(-188.332 -606.742)"/>
  <path id="Контур_635" data-name="Контур 635" d="M177.366,375.7c-.042.109-.081.218-.118.327a8.39,8.39,0,0,0-.248.877A7.83,7.83,0,0,1,177.366,375.7Z" transform="translate(-176.775 -370.396)"/>
  <path id="Контур_636" data-name="Контур 636" d="M182.044,598.248c.023.067.048.134.072.2-.067-.171-.125-.343-.176-.519C181.974,598.037,182.008,598.143,182.044,598.248Z" transform="translate(-181.588 -586.951)"/>
  <path id="Контур_637" data-name="Контур 637" d="M178.47,585.26c.028.109.058.216.09.324C178.526,585.476,178.5,585.369,178.47,585.26Z" transform="translate(-178.207 -574.604)"/>
  <path id="Контур_638" data-name="Контур 638" d="M175.529,422.86c-.014.06-.026.12-.039.181A1.409,1.409,0,0,1,175.529,422.86Z" transform="translate(-175.303 -416.352)"/>
  <path id="Контур_639" data-name="Контур 639" d="M173.092,430c-.023.111-.042.221-.062.334C173.047,430.22,173.067,430.11,173.092,430Z" transform="translate(-172.906 -423.309)"/>
  <path id="Контур_640" data-name="Контур 640" d="M171.1,546.3a8.712,8.712,0,0,0,.188,1A7.994,7.994,0,0,1,171.1,546.3Z" transform="translate(-171.025 -536.639)"/>
  <path id="Контур_641" data-name="Контур 641" d="M171.193,449.23c-.009.056-.016.114-.023.17C171.177,449.342,171.186,449.286,171.193,449.23Z" transform="translate(-171.093 -442.048)"/>
  <path id="Контур_642" data-name="Контур 642" d="M169.65,532.94c.009.107.021.214.033.32C169.669,533.154,169.659,533.047,169.65,532.94Z" transform="translate(-169.612 -523.62)"/>
  <path id="Контур_643" data-name="Контур 643" d="M170.489,459c0,.028-.007.058-.009.086A.8.8,0,0,1,170.489,459Z" transform="translate(-170.421 -451.569)"/>
  <path id="Контур_644" data-name="Контур 644" d="M169.739,462.38c-.009.06-.014.12-.019.179C169.725,462.5,169.731,462.44,169.739,462.38Z" transform="translate(-169.68 -454.862)"/>
  <path id="Контур_645" data-name="Контур 645" d="M168.69,520.2c.007.1.012.2.021.3C168.7,520.4,168.7,520.3,168.69,520.2Z" transform="translate(-168.677 -511.206)"/>
  <path id="Контур_646" data-name="Контур 646" d="M168.21,504.85c0,.116.005.23.01.345C168.215,505.08,168.212,504.966,168.21,504.85Z" transform="translate(-168.209 -496.248)"/>
</svg>
