<svg id="_ÎÓÈ_1" data-name="—ÎÓÈ_1" xmlns="http://www.w3.org/2000/svg" width="16.957" height="16.957" viewBox="0 0 16.957 16.957">
  <path id="Контур_694" data-name="Контур 694" d="M309.726,168a8.437,8.437,0,0,0-4.986,1.623h9.973A8.438,8.438,0,0,0,309.726,168Z" transform="translate(-301.248 -168)" fill="#fff"/>
  <path id="Контур_695" data-name="Контур 695" d="M168,338.522a8.435,8.435,0,0,0,1.133,4.232h14.691a8.47,8.47,0,0,0,0-8.463H169.133A8.437,8.437,0,0,0,168,338.522Z" transform="translate(-168 -330.043)" fill="#fff"/>
  <path id="Контур_696" data-name="Контур 696" d="M309.726,770.063a8.438,8.438,0,0,0,4.987-1.623H304.74A8.437,8.437,0,0,0,309.726,770.063Z" transform="translate(-301.248 -753.106)" fill="#fff"/>
  <path id="Контур_697" data-name="Контур 697" d="M224.692,231.56h-9.973a8.514,8.514,0,0,0-2.359,2.623h14.691A8.517,8.517,0,0,0,224.692,231.56Z" transform="translate(-211.227 -229.937)" fill="#0038b8"/>
  <path id="Контур_698" data-name="Контур 698" d="M214.719,668.324h9.973a8.515,8.515,0,0,0,2.359-2.624H212.36A8.512,8.512,0,0,0,214.719,668.324Z" transform="translate(-211.227 -652.99)" fill="#0038b8"/>
  <path id="Контур_699" data-name="Контур 699" d="M380.153,359.453l1.07-1.853h-2.14l-1.056-1.83-1.056,1.83h-2.14l1.07,1.853-1.07,1.853h2.14l1.056,1.83,1.056-1.83h2.14Zm-.021-1.223-.343.593-.342-.593Zm-.706,1.223-.706,1.223h-1.386l-.706-1.223.706-1.223h1.386Zm-1.4-2.423.329.57H377.7Zm-2.105,1.2h.685l-.342.593Zm0,2.446.343-.594.342.593Zm2.105,1.2-.329-.57h.658Zm1.762-1.793.342.593h-.684Z" transform="translate(-369.548 -350.975)" fill="#0038b8"/>
</svg>
